<?xml version="1.0" standalone="no"?>
<!DOCTYPE svg PUBLIC "-//W3C//DTD SVG 20010904//EN"
 "http://www.w3.org/TR/2001/REC-SVG-20010904/DTD/svg10.dtd">
<svg version="1.0" xmlns="http://www.w3.org/2000/svg"
 width="1440.000000pt" height="1440.000000pt" viewBox="0 0 1440.000000 1440.000000"
 preserveAspectRatio="xMidYMid meet">

<g transform="translate(0.000000,1440.000000) scale(0.100000,-0.100000)"
fill="#000000" stroke="none">
<path d="M0 13287 l0 -1112 38 44 c27 32 41 41 46 32 5 -8 -9 -35 -38 -72
l-46 -59 0 -6060 0 -6060 2643 1 2642 0 -140 29 c-155 32 -156 33 -210 132
-24 43 -24 48 -8 48 22 -1 458 -113 493 -128 14 -5 60 -26 104 -46 l78 -36
3234 0 3233 0 91 55 c49 30 102 58 116 61 24 6 25 5 14 -15 -6 -12 -39 -40
-72 -62 l-61 -39 1121 0 1122 0 0 1091 0 1091 -57 -51 c-31 -28 -61 -51 -66
-51 -8 0 31 58 95 141 l28 37 0 4905 0 4905 -76 132 c-89 155 -94 166 -71 157
9 -4 24 -10 32 -13 11 -5 13 -2 9 10 -13 35 8 13 52 -54 26 -38 49 -70 50 -70
2 0 4 488 4 1085 l0 1085 -2657 -1 c-2208 -1 -2647 -3 -2593 -14 132 -26 149
-33 180 -77 17 -23 29 -42 27 -44 -7 -7 -486 105 -519 122 -22 12 -170 14
-868 14 -533 0 -840 -4 -840 -10 0 -5 -9 -14 -20 -20 -16 -8 -20 -8 -18 2 3
14 -15 15 -79 4 -36 -6 -43 -5 -43 8 0 15 -306 16 -3485 16 l-3485 0 0 -1113z
m6445 973 c-6 -10 -45 -1 -45 10 0 4 11 5 25 2 14 -2 23 -8 20 -12z m632 -67
c-3 -10 -5 -2 -5 17 0 19 2 27 5 18 2 -10 2 -26 0 -35z m4166 5 c239 -161 317
-226 257 -216 -45 7 -362 258 -326 258 4 0 35 -19 69 -42z m-4136 -25 c-3 -10
-5 -4 -5 12 0 17 2 24 5 18 2 -7 2 -21 0 -30z m-20 -45 c-3 -7 -5 -2 -5 12 0
14 2 19 5 13 2 -7 2 -19 0 -25z m-30 -40 c-3 -8 -6 -5 -6 6 -1 11 2 17 5 13 3
-3 4 -12 1 -19z m2953 12 c0 -5 9 -10 21 -10 12 0 23 -8 26 -20 3 -11 9 -20
14 -20 5 0 9 -7 9 -15 0 -8 -4 -15 -10 -15 -5 0 -10 -7 -10 -15 0 -9 -7 -27
-16 -41 -13 -19 -20 -22 -30 -13 -17 14 -19 -2 -3 -18 13 -13 2 -36 -12 -27
-5 3 -18 -5 -29 -18 -23 -28 -25 -42 -5 -34 21 8 19 3 -15 -52 -23 -37 -30
-42 -30 -24 0 13 -6 22 -15 22 -18 0 -19 -23 -4 -51 9 -17 5 -29 -23 -69 -34
-52 -46 -58 -66 -38 -9 9 -12 8 -12 -5 0 -9 5 -17 10 -17 6 0 10 -4 10 -10 0
-5 -7 -10 -15 -10 -8 0 -15 9 -15 20 0 13 -5 18 -15 14 -11 -5 -15 1 -15 22 0
23 -2 26 -11 14 -6 -8 -9 -10 -7 -5 3 10 69 144 76 155 2 2 7 -2 13 -10 7 -11
8 -6 3 14 -5 20 -4 27 4 22 8 -5 10 -2 6 8 -3 9 -2 16 4 16 5 0 12 8 16 18 3
9 10 24 15 32 28 42 91 151 91 158 0 10 22 32 32 32 4 0 8 -4 8 -10z m-2387
-65 c89 -20 166 -41 172 -47 12 -13 0 -11 -207 33 -82 18 -148 36 -148 40 0
13 7 12 183 -26z m3300 -31 c27 -20 46 -38 44 -41 -6 -5 -92 51 -102 67 -12
19 10 9 58 -26z m-5748 12 c-27 -7 -66 -11 -85 -10 -19 2 -44 -3 -55 -10 -22
-14 -117 -32 -149 -28 -10 1 -24 -2 -30 -6 -6 -5 -22 -6 -36 -2 -23 6 -22 8
15 18 92 25 145 35 235 42 145 11 163 10 105 -4z m1298 -10 c40 -9 25 -23 -33
-31 -28 -4 -48 -11 -45 -15 3 -4 -3 -6 -14 -3 -10 2 -61 -4 -112 -16 -61 -13
-106 -17 -129 -13 l-34 8 39 11 c22 6 91 22 153 34 61 12 112 26 112 31 0 5 8
7 18 5 9 -3 30 -8 45 -11z m1422 -41 c28 -7 41 -13 30 -14 -11 0 -42 6 -70 13
-63 18 -28 19 40 1z m4266 -22 c13 -17 13 -17 -6 -3 -11 8 -22 16 -24 17 -2 2
0 3 6 3 6 0 17 -8 24 -17z m-6091 -14 c0 -5 -3 -8 -7 -6 -11 7 -255 -48 -248
-55 3 -3 -6 -3 -20 0 -30 5 -40 17 -17 19 26 2 206 43 211 49 9 9 81 4 81 -7z
m-3913 -34 c0 -8 -4 -12 -9 -9 -4 3 -15 -2 -24 -10 -8 -9 -24 -16 -35 -16 -11
0 -17 -4 -14 -10 3 -5 -1 -10 -9 -10 -8 0 -31 -16 -50 -35 -41 -41 -57 -29
-26 20 12 19 23 35 24 35 2 0 136 47 142 50 0 0 1 -7 1 -15z m10084 -12 c13
-16 12 -17 -3 -4 -17 13 -22 21 -14 21 2 0 10 -8 17 -17z m40 -30 c13 -16 12
-17 -3 -4 -17 13 -22 21 -14 21 2 0 10 -8 17 -17z m-5208 -44 c4 -16 3 -18 -9
-8 -7 6 -11 15 -8 20 8 13 11 11 17 -12z m-33 -15 c0 -8 -5 -12 -10 -9 -6 4
-8 11 -5 16 9 14 15 11 15 -7z m5351 -21 c13 -16 12 -17 -3 -4 -17 13 -22 21
-14 21 2 0 10 -8 17 -17z m-3821 -15 c0 -18 -2 -20 -9 -8 -6 8 -7 18 -5 22 9
14 14 9 14 -14z m-1530 8 c0 -3 -4 -8 -10 -11 -5 -3 -10 -1 -10 4 0 6 5 11 10
11 6 0 10 -2 10 -4z m-3342 -12 c12 -4 22 -9 22 -13 0 -3 -23 -19 -51 -36 -28
-16 -58 -37 -67 -45 -22 -20 -151 -74 -159 -67 -14 14 12 39 104 100 100 67
111 71 151 61z m3099 -20 c-3 -3 -12 -4 -19 -1 -8 3 -5 6 6 6 11 1 17 -2 13
-5z m210 -46 c-3 -7 -5 -2 -5 12 0 14 2 19 5 13 2 -7 2 -19 0 -25z m-610 -14
c-3 -3 -12 -4 -19 -1 -8 3 -5 6 6 6 11 1 17 -2 13 -5z m4657 -148 c60 -42 105
-76 100 -76 -5 0 -40 23 -79 50 -38 27 -109 77 -157 110 -49 34 -88 63 -88 66
0 5 58 -34 224 -150z m-4960 119 c25 -19 42 -13 -231 -75 -53 -12 -73 -13 -73
-1 0 5 26 15 58 21 118 25 207 50 210 60 5 13 13 12 36 -5z m913 -32 c-3 -10
-5 -2 -5 17 0 19 2 27 5 18 2 -10 2 -26 0 -35z m2730 -29 c-3 -3 -12 -4 -19
-1 -8 3 -5 6 6 6 11 1 17 -2 13 -5z m-23 -49 c19 -28 20 -35 6 -35 -5 0 -10 7
-10 15 0 8 -9 15 -20 15 -20 0 -26 11 -13 23 11 12 20 8 37 -18z m-2674 -1 c0
-6 -11 -15 -24 -18 -22 -5 -23 -9 -15 -43 12 -52 11 -56 -5 -41 -7 7 -12 23
-10 36 5 24 -15 29 -58 13 -13 -4 -36 -11 -52 -15 -25 -6 -28 -5 -17 7 6 8 36
18 66 22 30 3 55 10 55 15 0 14 27 37 44 37 9 0 16 -6 16 -13z m2647 -36 c-3
-8 -6 -5 -6 6 -1 11 2 17 5 13 3 -3 4 -12 1 -19z m-24 -13 c-3 -9 -8 -14 -10
-11 -3 3 -2 9 2 15 9 16 15 13 8 -4z m-4066 -4 c27 -7 26 -8 -20 -19 -111 -28
-277 -51 -327 -45 -28 3 -47 10 -43 14 4 4 55 19 113 32 105 24 224 32 277 18z
m1133 -26 c-7 -8 -20 -15 -29 -15 -13 1 -13 3 3 15 26 19 42 19 26 0z m-3454
-27 c4 -6 3 -8 -3 -5 -5 4 -20 -3 -31 -14 -12 -11 -22 -17 -22 -13 0 4 -10 -1
-22 -12 -13 -11 -36 -26 -53 -34 -61 -29 -77 -42 -63 -52 8 -6 5 -7 -11 -3
-17 5 -22 4 -16 -5 5 -9 4 -11 -4 -6 -7 5 -26 -3 -46 -18 -18 -14 -38 -26 -44
-26 -6 0 -11 -4 -11 -10 0 -5 -4 -10 -10 -10 -22 0 -120 -72 -120 -88 0 -12
-3 -13 -8 -5 -6 9 -21 3 -55 -21 -25 -18 -43 -36 -40 -40 4 -4 0 -4 -10 0 -11
4 -17 1 -17 -7 0 -7 -3 -9 -6 -6 -4 3 -16 0 -28 -8 -25 -18 -36 -19 -36 -2 0
6 43 40 95 74 52 35 95 68 95 75 0 21 239 180 265 176 6 0 27 7 48 16 49 21
130 54 139 55 4 1 10 -4 14 -11z m8013 -64 c51 -36 90 -69 87 -72 -6 -5 -206
126 -206 134 0 15 40 -6 119 -62z m-4303 -2 c-12 -11 -17 7 -9 34 l8 29 3 -28
c2 -16 1 -31 -2 -35z m1036 -6 c101 -19 202 -37 225 -41 22 -3 49 -13 60 -20
24 -19 9 -19 -85 1 -42 9 -148 29 -236 44 -87 16 -164 34 -170 40 -16 16 7 13
206 -24z m418 20 c0 -3 -4 -8 -10 -11 -5 -3 -10 -1 -10 4 0 6 5 11 10 11 6 0
10 -2 10 -4z m37 -10 c0 -8 -6 -12 -14 -9 -7 3 -10 9 -7 14 8 14 21 11 21 -5z
m-4816 -45 c-10 -10 -35 -30 -55 -43 -20 -14 -33 -28 -28 -32 4 -4 2 -7 -3 -5
-16 4 -45 -12 -39 -22 3 -5 -2 -6 -10 -3 -9 3 -16 2 -16 -4 0 -5 -13 -15 -30
-22 -16 -7 -30 -16 -30 -21 0 -4 -14 -7 -31 -7 -18 1 -25 4 -18 9 10 6 10 11
0 23 -10 12 -6 20 31 46 62 45 110 69 176 84 76 19 75 19 53 -3z m2444 -5
l-30 -25 65 15 c63 15 142 11 124 -6 -5 -4 -49 -15 -99 -25 -49 -9 -112 -20
-138 -26 -26 -5 -62 -9 -78 -9 -17 0 -28 -4 -25 -8 3 -5 -9 -9 -27 -10 -30 -1
-68 -6 -127 -16 -106 -19 -107 -19 -112 2 -6 23 -9 22 207 72 72 16 157 36
190 44 82 20 84 19 50 -8z m-3640 -45 c-16 -10 -50 -32 -74 -47 -53 -35 -53
-35 -119 -73 -29 -17 -59 -31 -66 -31 -8 0 -22 -7 -30 -16 -9 -8 -16 -13 -16
-9 0 3 -10 1 -21 -6 -12 -6 -19 -7 -16 -2 3 5 24 18 47 28 22 10 40 22 40 26
0 11 40 51 76 76 34 24 158 71 189 72 16 1 14 -3 -10 -18z m4315 -63 c0 -18
-5 -28 -15 -28 -10 0 -15 10 -15 33 0 19 3 37 7 40 10 11 23 -14 23 -45z
m-653 36 c-3 -3 -12 -4 -19 -1 -8 3 -5 6 6 6 11 1 17 -2 13 -5z m844 -54 c-8
-21 -9 -19 -6 15 5 50 7 55 12 30 2 -12 0 -32 -6 -45z m26 28 c-3 -8 -6 -5 -6
6 -1 11 2 17 5 13 3 -3 4 -12 1 -19z m-2659 -43 c7 -14 12 -32 12 -40 0 -18
16 -20 26 -4 4 8 9 7 15 -2 10 -17 -7 -29 -43 -29 -37 0 -55 35 -41 83 6 24
18 21 31 -8z m2372 5 c0 -5 -4 -10 -10 -10 -5 0 -10 5 -10 10 0 6 5 10 10 10
6 0 10 -4 10 -10z m-45 -20 c-22 -22 -150 -59 -204 -60 -81 0 29 39 157 57 23
3 42 10 42 14 0 5 6 9 12 9 7 0 4 -8 -7 -20z m-1188 -32 c-3 -7 -5 -2 -5 12 0
14 2 19 5 13 2 -7 2 -19 0 -25z m1213 18 c0 -3 -4 -8 -10 -11 -5 -3 -10 -1
-10 4 0 6 5 11 10 11 6 0 10 -2 10 -4z m-1088 -18 c-7 -7 -12 -21 -12 -32 0
-10 -3 -17 -6 -13 -10 10 5 57 18 57 9 0 9 -3 0 -12z m-407 -7 c-12 -12 -146
-43 -153 -36 -10 9 7 18 60 31 65 15 106 18 93 5z m1512 -13 c-3 -8 -6 -5 -6
6 -1 11 2 17 5 13 3 -3 4 -12 1 -19z m-480 -114 c-3 -3 -12 -4 -19 -1 -8 3 -5
6 6 6 11 1 17 -2 13 -5z m-361 -45 c4 -8 -1 -9 -15 -4 -13 4 -29 1 -39 -7 -15
-12 -16 -11 -3 5 15 19 46 23 57 6z m-229 -5 c-3 -3 -12 -4 -19 -1 -8 3 -5 6
6 6 11 1 17 -2 13 -5z m1133 -12 c0 -10 -18 -38 -39 -61 -38 -41 -43 -43 -188
-77 -336 -79 -318 -77 -321 -30 -2 23 2 33 10 32 23 -2 138 27 138 35 0 4 19
1 42 -7 30 -10 50 -12 72 -5 17 5 59 15 94 21 34 7 65 17 68 21 2 4 12 5 21 2
11 -4 14 -3 9 6 -6 9 -1 10 18 5 22 -5 25 -4 19 12 -4 11 -3 15 4 11 11 -7 22
11 32 48 3 14 21 3 21 -13z m2970 -8 c0 -2 -9 0 -20 6 -11 6 -20 13 -20 16 0
2 9 0 20 -6 11 -6 20 -13 20 -16z m-3855 -1 c-16 -10 -43 -18 -60 -20 -16 -2
-53 -8 -81 -14 -28 -6 -58 -9 -65 -7 -8 3 4 9 26 13 22 4 72 15 110 25 89 23
108 24 70 3z m-261 -34 c-2 -4 -18 -10 -35 -14 -24 -6 -28 -9 -18 -21 9 -11 7
-14 -10 -14 -12 0 -20 4 -17 8 2 4 -5 8 -17 8 -26 1 -160 -29 -202 -46 -16 -6
-48 -14 -70 -16 -22 -3 -56 -10 -75 -15 -49 -13 -70 -11 -70 5 0 10 25 20 78
32 42 9 82 21 89 26 6 5 69 23 139 41 108 27 135 31 170 23 24 -6 41 -13 38
-17z m1423 -11 c-3 -8 -6 -5 -6 6 -1 11 2 17 5 13 3 -3 4 -12 1 -19z m113 2
c30 -5 142 -25 249 -45 107 -20 200 -34 208 -31 8 3 83 -6 166 -20 311 -51
417 -76 417 -97 0 -4 4 -6 8 -3 5 3 9 -1 9 -9 0 -8 -7 -15 -15 -15 -32 0 -502
92 -562 110 -36 11 -92 24 -125 29 -108 18 -450 83 -454 87 -7 7 42 4 99 -6z
m-3692 -57 c-170 -113 -209 -136 -219 -126 -7 7 29 37 110 91 66 44 118 82
116 84 -2 1 15 4 37 5 l40 1 -84 -55z m3584 -75 c-2 -40 -5 -74 -6 -75 -1 -1
-7 1 -13 5 -15 10 -5 142 12 142 8 0 10 -20 7 -72z m-4866 -10 c5 -7 3 -8 -6
-3 -8 5 -18 1 -26 -10 -8 -10 -17 -15 -21 -12 -3 4 2 14 13 22 23 18 31 18 40
3z m7988 -57 c-2 -3 -12 3 -22 13 -16 17 -16 18 5 5 12 -7 20 -15 17 -18z m81
-46 l20 -16 -20 10 c-11 5 -29 17 -40 26 l-20 16 20 -10 c11 -5 29 -17 40 -26z
m-3215 4 c0 -11 -4 -18 -10 -14 -5 3 -7 12 -3 20 7 21 13 19 13 -6z m-4157
-51 c-2 -5 0 -8 4 -8 5 0 14 -9 20 -19 10 -17 9 -18 -10 -14 -18 4 -19 3 -7
-6 10 -7 11 -11 3 -11 -20 0 -33 36 -26 71 5 28 7 30 13 14 4 -11 6 -23 3 -27z
m2792 24 c-3 -3 -11 0 -18 7 -9 10 -8 11 6 5 10 -3 15 -9 12 -12z m-70 -13
c-4 -5 4 -9 17 -9 21 0 20 -2 -7 -14 -16 -8 -55 -19 -85 -25 -30 -6 -66 -14
-79 -18 -15 -4 -22 -2 -18 4 3 5 42 18 86 28 68 15 79 21 76 37 -2 10 0 16 6
13 5 -4 7 -11 4 -16z m64 -5 c14 -12 -19 -1 -35 12 -18 14 -18 14 6 3 14 -6
27 -13 29 -15z m1226 6 c-10 -11 -22 -17 -28 -13 -6 4 -3 12 8 20 28 20 41 16
20 -7z m3431 -11 c3 -6 -5 -3 -20 6 -14 10 -26 19 -26 22 0 7 39 -17 46 -28z
m1091 -46 c56 -38 103 -71 103 -76 0 -4 -48 25 -107 64 -124 82 -119 79 -108
79 5 0 55 -30 112 -67z m-1017 1 c0 -2 -9 0 -20 6 -11 6 -20 13 -20 16 0 2 9
0 20 -6 11 -6 20 -13 20 -16z m-7943 9 c-4 -3 -1 -13 6 -22 10 -14 10 -14 -4
-3 -14 11 -23 9 -53 -11 -19 -14 -33 -26 -31 -29 2 -2 -5 -5 -17 -5 -20 -2
-20 -1 -5 14 9 9 35 26 59 39 46 24 55 28 45 17z m-586 -40 c-5 -10 -12 -26
-15 -35 -6 -22 -36 -24 -36 -3 0 14 51 68 58 61 2 -2 -1 -12 -7 -23z m3449 3
c0 -3 -4 -8 -10 -11 -5 -3 -10 -1 -10 4 0 6 5 11 10 11 6 0 10 -2 10 -4z
m-2380 -31 c0 -2 -10 -9 -22 -15 -22 -11 -22 -10 -4 4 21 17 26 19 26 11z
m3515 -26 c-27 -12 -58 -21 -68 -21 -9 1 -29 -5 -43 -13 -18 -9 -35 -10 -57
-4 -18 5 -33 9 -35 9 -2 0 -1 4 2 9 3 5 15 7 26 4 11 -3 27 0 34 7 8 6 45 13
82 15 36 2 69 6 72 9 3 3 12 6 21 6 9 -1 -6 -10 -34 -21z m-3579 -17 c-3 -2
-16 -5 -28 -6 -13 0 -23 -6 -23 -12 0 -21 -35 -46 -85 -59 -23 -7 -39 -19 -34
-26 3 -5 2 -9 -3 -10 -4 0 -19 -3 -33 -5 -15 -3 -21 -1 -15 4 17 15 169 117
185 123 16 7 44 0 36 -9z m3714 9 c0 -5 -15 -11 -32 -14 -18 -3 -68 -14 -110
-25 -42 -10 -82 -16 -88 -12 -16 10 55 34 81 27 10 -3 19 -2 19 2 0 4 26 12
58 18 31 6 60 11 65 12 4 0 7 -3 7 -8z m-1911 -106 c3 21 21 -22 21 -49 0 -28
-1 -29 -15 -10 -12 16 -14 16 -15 3 0 -15 -27 -29 -57 -29 -8 0 -12 13 -11 35
1 28 7 37 30 47 15 7 28 20 29 28 1 8 5 4 9 -10 4 -14 9 -20 9 -15z m1228 -1
c-3 -3 -12 -4 -19 -1 -8 3 -5 6 6 6 11 1 17 -2 13 -5z m-5787 -65 c-16 -22
-26 -27 -33 -20 -8 8 -2 20 18 41 36 37 45 23 15 -21z m5565 31 c-3 -5 -16
-10 -28 -9 -20 1 -20 2 3 9 14 4 26 8 28 9 2 1 0 -3 -3 -9z m20 -26 c-33 -7
-69 -13 -80 -13 -34 1 68 27 105 27 28 0 23 -3 -25 -14z m1015 -2 c0 -15 -52
-34 -63 -23 -6 6 2 13 24 19 19 6 35 11 37 11 1 1 2 -3 2 -7z m-1350 -33 c0
-6 -4 -7 -10 -4 -5 3 -10 11 -10 16 0 6 5 7 10 4 6 -3 10 -11 10 -16z m1439
-3 c30 -17 14 -28 -43 -31 -23 -1 -58 -6 -79 -10 -37 -7 -38 -7 -26 13 7 11
18 18 24 15 7 -2 28 3 46 11 43 18 49 18 78 2z m-2209 -3 c-1 -11 -130 -97
-136 -90 -3 3 11 18 31 34 20 15 47 36 58 45 23 18 47 23 47 11z m5239 -40
c42 -25 121 -75 177 -109 55 -35 106 -64 114 -66 8 -2 120 -66 249 -144 198
-119 237 -146 255 -179 16 -28 47 -54 111 -95 85 -53 90 -58 93 -94 l3 -37
-68 42 c-37 24 -72 49 -76 57 -7 10 -12 10 -23 1 -8 -6 -14 -16 -14 -22 0 -6
7 -2 16 9 15 18 15 18 4 -3 -5 -12 -16 -20 -23 -17 -7 2 -21 -4 -31 -15 -18
-20 -18 -20 4 -16 13 2 19 1 16 -3 -4 -4 -11 -7 -14 -7 -18 -1 -62 -39 -58
-50 5 -13 -12 -35 -27 -35 -4 0 -5 5 -1 12 5 7 2 8 -7 3 -23 -13 -59 -48 -59
-57 0 -5 12 2 27 16 15 14 29 23 32 20 7 -7 -61 -74 -70 -68 -4 2 -10 -5 -14
-16 -6 -20 -15 -24 -47 -21 -10 1 -18 -3 -18 -9 0 -6 4 -9 9 -5 18 10 21 -13
3 -26 -9 -7 -14 -9 -9 -4 4 4 -1 17 -10 28 -17 18 -17 20 4 37 12 10 20 20 18
24 -3 3 -3 4 0 2 3 -2 41 33 85 77 72 71 82 78 98 66 15 -12 16 -12 5 2 -11
13 -7 21 23 50 83 79 72 97 -133 225 -87 54 -189 117 -226 141 -37 24 -84 50
-103 58 -62 26 -414 249 -414 262 0 22 20 15 99 -34z m-6359 -68 c-27 -29 -42
-31 -61 -9 -17 20 2 34 50 34 l34 0 -23 -25z m2800 0 c8 -7 30 -16 49 -20 47
-10 29 -19 -104 -51 -77 -18 -110 -23 -118 -15 -6 6 -21 11 -33 11 -12 0 -41
8 -64 19 l-42 19 38 5 c59 7 199 40 202 48 4 9 55 -2 72 -16z m266 -51 c0 -16
4 -37 8 -46 5 -10 6 -24 3 -32 -4 -9 1 -17 11 -20 9 -2 6 -4 -8 -3 -20 2 -26
8 -30 36 -6 39 -21 49 -40 26 -20 -24 -41 -19 -31 7 5 15 17 23 32 23 17 0 25
6 27 23 5 32 27 21 28 -14z m-3070 -27 c-2 -7 -5 -4 -5 6 -1 9 -6 17 -12 17
-5 0 -7 5 -3 11 9 15 28 -16 20 -34z m3422 30 c13 -15 5 -30 -25 -46 -31 -16
-33 -15 -33 18 0 27 7 33 41 40 4 0 11 -5 17 -12z m-454 -85 c-1 -20 3 -22 27
-17 28 6 61 -5 61 -20 -1 -4 -21 -17 -46 -28 -25 -11 -46 -26 -46 -34 0 -25
-43 -11 -51 17 -14 50 -10 98 9 103 32 9 47 2 46 -21z m-636 2 c-14 -13 -96
-31 -108 -24 -10 6 -6 10 16 15 16 4 34 8 39 10 17 6 59 5 53 -1z m-958 -21
c6 -5 -34 -38 -72 -58 -21 -12 -28 -12 -34 -2 -4 6 -4 9 1 5 11 -11 38 29 29
44 -5 7 -3 8 6 3 10 -6 12 -4 7 7 -4 13 0 15 26 11 18 -3 34 -7 37 -10z m-110
-2 c0 -5 -12 -24 -27 -42 -16 -18 -26 -33 -25 -33 9 -2 -34 -66 -44 -66 -22 0
-66 -28 -55 -35 6 -3 11 -23 10 -43 l0 -37 -24 50 c-12 27 -31 52 -40 55 -13
5 -2 16 46 48 35 23 70 47 78 54 16 14 74 57 79 58 1 0 2 -4 2 -9z m1367 -13
c-3 -8 -6 -5 -6 6 -1 11 2 17 5 13 3 -3 4 -12 1 -19z m-2461 -17 c18 -36 8
-54 -20 -36 -13 8 -25 13 -28 9 -3 -3 -9 0 -14 7 -4 8 -3 10 4 5 8 -5 12 2 12
19 0 33 29 31 46 -4z m1824 14 c-11 -13 -6 -14 36 -10 47 5 48 5 14 -6 -56
-17 -62 -32 -10 -26 52 6 38 -1 -66 -33 -49 -15 -82 -19 -107 -15 -21 4 -37 9
-37 10 0 18 23 56 32 54 7 -1 24 -1 38 0 21 1 22 3 10 12 -12 9 -11 10 8 6 12
-3 22 -1 22 3 0 9 23 17 54 19 15 1 16 -2 6 -14z m3606 -26 c8 -6 14 -8 14 -5
0 12 196 -100 207 -117 7 -12 8 -12 -74 37 -35 21 -67 35 -72 31 -13 -7 -87
28 -126 60 l-30 24 33 -9 c19 -5 40 -14 48 -21z m-7556 -4 c0 -2 -129 -186
-287 -407 -158 -222 -385 -542 -506 -713 -121 -170 -226 -317 -235 -325 -8 -8
-6 -1 5 15 26 39 578 828 615 879 26 36 27 41 14 61 -13 20 -5 36 134 247 139
213 150 226 186 236 44 11 74 14 74 7z m5050 -11 c-25 -8 -52 -13 -60 -11 -8
2 5 8 30 14 65 16 83 13 30 -3z m-3040 -29 c0 -12 -19 -12 -23 0 -4 9 -1 12 9
8 7 -3 14 -7 14 -8z m2497 -24 c28 -16 64 -32 78 -35 36 -9 30 -13 -53 -36
-88 -25 -96 -25 -89 -1 4 17 2 17 -45 3 -55 -16 -65 -11 -70 32 -3 28 0 31 52
47 72 22 67 23 127 -10z m-2392 -5 c-16 -14 -56 -39 -89 -56 -70 -37 -168
-109 -161 -119 2 -4 -12 -13 -31 -20 -19 -7 -32 -16 -29 -20 2 -5 -11 -22 -30
-40 -19 -17 -35 -29 -35 -25 0 3 -15 -5 -34 -19 l-33 -26 -23 21 -23 22 29 23
c16 13 45 39 64 57 76 71 228 166 297 187 37 11 75 24 83 29 32 19 42 9 15
-14z m3079 -25 c6 -9 -44 -31 -70 -31 -17 0 -18 27 -1 33 21 9 66 7 71 -2z
m2482 -22 c4 -8 1 -8 -14 0 -12 6 -24 16 -28 22 -4 8 -1 8 14 0 12 -6 24 -16
28 -22z m-5289 -33 c-4 -9 -1 -13 6 -11 7 3 18 1 26 -4 20 -13 -32 -97 -80
-127 -47 -29 -47 -29 -76 -2 -22 21 -32 58 -15 58 5 0 26 15 48 33 21 19 44
32 51 30 6 -2 17 5 23 16 12 24 25 28 17 7z m8488 -128 c33 -50 65 -105 71
-123 7 -17 22 -51 34 -76 12 -24 18 -39 12 -34 -16 16 -92 137 -92 147 0 5
-22 42 -50 83 -48 71 -59 95 -42 95 4 0 34 -41 67 -92z m-5518 45 c4 -10 -85
-43 -116 -43 -28 0 -6 30 32 44 47 17 79 17 84 -1z m-1087 -93 c0 -5 -17 -12
-37 -15 -21 -4 -68 -15 -105 -26 -74 -21 -88 -23 -88 -10 0 9 171 59 208 60
12 1 22 -3 22 -9z m7065 -86 c32 -48 66 -109 77 -138 23 -64 9 -48 -69 79 -30
50 -63 102 -73 116 -18 25 -17 45 0 34 5 -3 34 -44 65 -91z m-1125 51 c12 -19
20 -40 18 -47 -4 -12 -48 52 -48 71 0 18 7 13 30 -24z m-4980 20 c0 -2 -18 -9
-41 -15 -22 -6 -48 -14 -57 -17 -12 -4 -14 -3 -7 5 15 16 105 39 105 27z
m2640 -100 c47 -28 133 -80 192 -116 82 -49 110 -71 118 -93 5 -16 10 -31 10
-33 0 -6 -83 39 -127 68 -42 29 -84 49 -114 55 -10 2 -44 21 -76 43 -88 58
-112 58 -147 -1 -35 -59 -32 -36 4 36 25 50 28 61 16 68 -8 5 -12 16 -9 28 6
23 3 24 133 -55z m-4035 -9 c59 -27 64 -31 38 -33 -10 -1 -58 -13 -107 -28
-84 -25 -90 -25 -122 -10 -35 16 -50 32 -40 42 5 6 152 51 168 52 4 1 32 -10
63 -23z m4620 -62 c232 -143 283 -172 290 -166 3 4 3 -1 0 -10 -6 -15 -2 -15
34 3 23 11 41 24 41 29 0 16 17 12 24 -6 4 -10 2 -13 -6 -8 -7 5 -9 2 -5 -8 3
-10 0 -15 -11 -14 -13 1 -16 -6 -14 -25 1 -17 -3 -29 -13 -33 -9 -3 -13 -10
-10 -16 3 -5 2 -10 -4 -10 -14 0 -32 35 -23 46 4 5 3 6 -2 2 -5 -4 -23 4 -41
17 -17 14 -37 25 -43 25 -7 0 -12 4 -12 9 0 5 -8 7 -17 5 -10 -3 -48 13 -84
35 -37 22 -86 48 -110 57 -64 25 -127 71 -144 104 -37 72 -18 67 150 -36z
m-3087 38 c4 -13 -21 -25 -76 -37 -29 -6 -33 -4 -30 11 2 10 19 22 43 29 45
14 57 14 63 -3z m2326 -6 c-3 -9 -10 -16 -15 -16 -5 0 -4 9 3 20 14 22 21 20
12 -4z m2599 -59 c-3 -5 -13 -1 -22 7 -10 9 -22 13 -26 9 -5 -5 -3 0 4 9 7 9
10 23 6 30 -4 7 4 0 18 -17 14 -16 23 -34 20 -38z m-3054 28 c25 -14 53 -38
62 -53 9 -16 53 -49 106 -80 79 -45 93 -58 107 -93 9 -23 15 -44 12 -46 -5 -5
-126 59 -167 88 -15 10 -32 31 -38 46 -8 18 -37 43 -86 71 -71 41 -74 44 -63
68 6 13 13 24 16 24 2 0 25 -11 51 -25z m-1607 -10 c280 -36 585 -82 597 -90
6 -3 8 -11 5 -17 -9 -15 -100 -6 -437 42 -352 51 -387 57 -387 76 0 18 -4 18
222 -11z m-1272 -7 c0 -6 -6 -8 -14 -5 -8 3 -17 1 -20 -6 -2 -7 -5 -2 -5 10
-1 16 3 20 19 16 11 -3 20 -10 20 -15z m607 -96 c-22 -22 -31 -25 -45 -16 -9
6 -18 24 -20 41 -2 23 2 32 20 40 19 9 27 6 47 -14 l25 -24 -27 -27z m-884 37
c31 -16 31 -16 15 -33 -15 -15 -80 -36 -111 -36 -15 0 -40 39 -32 48 6 6 79
31 93 32 7 0 23 -5 35 -11z m5586 -24 c41 -47 60 -76 64 -100 2 -11 9 -33 15
-48 16 -38 15 -42 -4 -26 -30 24 -124 176 -124 199 0 19 18 10 49 -25z m716
-50 c21 -30 41 -55 45 -55 4 0 7 -7 7 -15 0 -9 -5 -14 -10 -12 -13 4 -97 125
-97 139 0 16 16 0 55 -57z m-5341 37 c6 -10 -82 -57 -90 -49 -11 11 22 46 46
50 14 2 28 5 32 6 4 0 9 -3 12 -7z m4960 -8 c3 -8 2 -12 -4 -9 -6 3 -10 10
-10 16 0 14 7 11 14 -7z m-8149 -106 c50 -68 59 -97 25 -76 -26 16 -101 123
-93 132 13 13 24 4 68 -56z m2756 25 c16 -10 29 -21 29 -25 0 -4 -21 -10 -47
-13 -27 -4 -57 -10 -68 -15 -60 -28 -76 -30 -106 -15 -16 9 -29 19 -29 24 0 4
42 20 93 33 50 14 94 26 95 27 2 0 17 -7 33 -16z m4214 7 c3 -5 1 -10 -4 -10
-6 0 -11 5 -11 10 0 6 2 10 4 10 3 0 8 -4 11 -10z m-145 -10 c8 -5 11 -10 5
-10 -5 0 -17 5 -25 10 -8 5 -10 10 -5 10 6 0 17 -5 25 -10z m-4355 -19 c-10
-9 -110 -41 -129 -41 -22 0 11 19 59 33 59 18 83 21 70 8z m2893 -102 c2 -13
-1 -19 -5 -14 -4 6 -17 12 -28 13 -26 5 -105 51 -105 62 0 5 -3 16 -7 26 -5
13 12 8 68 -23 56 -31 75 -46 77 -64z m-2018 76 c0 -2 -9 -9 -20 -15 -16 -9
-20 -8 -20 5 0 8 9 15 20 15 11 0 20 -2 20 -5z m5968 -20 c-3 -3 -9 2 -12 12
-6 14 -5 15 5 6 7 -7 10 -15 7 -18z m-6358 -31 c0 -8 4 -13 9 -9 5 3 12 1 16
-5 3 -5 2 -10 -4 -10 -5 0 -11 -10 -13 -22 -2 -12 -17 -30 -35 -41 -30 -17
-32 -17 -41 0 -5 10 -12 30 -16 45 -5 24 -3 28 19 34 15 4 32 1 43 -7 15 -12
16 -12 5 2 -7 9 -10 19 -6 22 11 12 23 7 23 -9z m-674 -49 c-16 -9 -34 -14
-40 -11 -6 2 0 8 14 14 39 16 59 14 26 -3z m-2172 -28 c17 -12 17 -14 2 -20
-9 -4 -16 -2 -16 3 0 6 -7 10 -15 10 -8 0 -15 5 -15 10 0 14 23 12 44 -3z
m-77 -27 c-28 -23 -43 -25 -53 -9 -9 15 15 29 50 29 l29 0 -26 -20z m112 -36
c16 -37 9 -39 -11 -3 -9 16 -14 29 -9 29 4 0 13 -12 20 -26z m2427 11 c4 -8
14 -15 23 -16 10 0 11 -2 3 -6 -6 -2 -10 -8 -7 -13 3 -4 -8 -19 -24 -33 -17
-14 -28 -27 -25 -29 2 -3 -4 -12 -13 -20 -12 -10 -31 -14 -55 -11 -33 5 -36 7
-27 24 6 12 20 19 39 19 38 0 60 9 60 26 0 17 2 17 -51 -1 -49 -18 -69 -14
-69 14 0 15 11 22 50 31 28 7 53 16 56 21 8 14 34 10 40 -6z m4014 -80 c12 4
37 -8 72 -35 29 -22 58 -40 64 -40 7 0 30 -18 53 -40 23 -23 53 -45 66 -50 14
-5 25 -14 25 -19 0 -12 -25 -4 -55 16 -23 15 -49 17 -40 3 10 -16 -99 35 -152
71 -26 18 -54 41 -61 51 -7 10 -17 16 -21 13 -14 -8 -103 54 -95 67 5 8 2 9
-10 5 -14 -5 -15 -3 -6 13 10 19 13 18 76 -21 41 -25 72 -38 84 -34z m1173
-11 c27 -36 53 -79 59 -95 5 -16 15 -29 21 -29 9 0 9 -2 1 -8 -6 -4 -13 -14
-16 -21 -3 -9 -33 25 -77 87 -61 85 -71 105 -61 117 7 8 15 15 19 15 3 -1 28
-30 54 -66z m-898 -24 c-16 -16 -31 -28 -33 -25 -9 9 29 55 45 55 13 0 10 -7
-12 -30z m-5871 -47 c-78 -63 -291 -223 -297 -223 -4 0 -7 6 -7 13 1 19 324
261 329 246 2 -7 -9 -23 -25 -36z m1916 25 c0 -19 -2 -20 -10 -8 -13 19 -13
30 0 30 6 0 10 -10 10 -22z m-710 -2 c0 -17 -43 -35 -92 -38 -20 -2 -34 -6
-31 -10 2 -5 -9 -8 -26 -8 -16 0 -33 5 -36 10 -3 6 -3 10 2 10 4 1 44 12 88
25 96 29 95 29 95 11z m7409 -10 c7 -8 23 -54 36 -102 l24 -89 -27 34 c-50 63
-92 147 -79 160 15 15 32 14 46 -3z m-7242 -12 c-3 -3 -12 -4 -19 -1 -8 3 -5
6 6 6 11 1 17 -2 13 -5z m-97 -24 c0 -5 -4 -10 -10 -10 -5 0 -10 5 -10 10 0 6
5 10 10 10 6 0 10 -4 10 -10z m-36 -9 c-22 -20 -96 -41 -112 -32 -13 7 -6 12
31 23 55 16 94 20 81 9z m7826 -80 c41 -62 46 -71 32 -71 -9 0 -80 92 -89 115
-13 36 20 10 57 -44z m-7966 13 c9 -3 14 -10 11 -15 -3 -4 1 -25 10 -45 18
-43 19 -54 5 -54 -5 0 -9 3 -9 8 3 18 -2 32 -11 32 -5 0 -10 -7 -10 -15 0 -8
-6 -15 -12 -16 -7 0 -5 -3 4 -7 15 -6 15 -9 -3 -31 -10 -13 -19 -20 -19 -17 0
3 -9 -2 -19 -11 -135 -123 -216 -183 -240 -176 -12 3 -21 9 -19 13 2 4 62 53
133 110 150 118 175 143 175 173 0 18 -2 19 -10 7 -8 -12 -10 -11 -10 8 0 12
5 22 12 22 6 0 8 3 4 7 -4 5 -13 0 -21 -10 -11 -16 -13 -16 -19 -2 -3 9 -2 13
3 10 5 -3 12 -1 16 5 7 12 8 12 29 4z m4810 -110 c3 -7 2 -14 -3 -14 -16 0
-59 40 -64 60 -5 18 -2 17 28 -6 18 -14 36 -32 39 -40z m-3914 14 c-105 -48
-112 -50 -123 -39 -12 12 -2 17 88 42 81 23 89 22 35 -3z m5358 -37 c25 -35
42 -70 42 -86 0 -26 -2 -25 -47 25 -72 79 -77 88 -63 105 7 8 15 15 19 15 3 0
25 -27 49 -59z m-5683 -46 c0 -32 -6 -40 -27 -36 -5 0 -8 -3 -8 -9 0 -5 -10
-10 -23 -10 -13 0 -28 -5 -33 -10 -16 -16 -64 9 -64 31 0 18 11 22 103 45 15
3 30 10 33 15 11 19 19 8 19 -26z m805 11 c0 -2 -30 -14 -67 -25 -222 -67
-294 -88 -286 -81 15 15 285 99 346 109 4 0 7 -1 7 -3z m5357 -138 c141 -191
164 -227 168 -262 l3 -35 -23 27 c-12 15 -48 62 -79 106 -31 43 -67 87 -80 97
-14 11 -42 47 -62 80 -30 49 -34 63 -23 70 8 5 17 9 21 9 4 0 38 -42 75 -92z
m-755 -20 c62 -87 73 -109 78 -155 3 -29 4 -53 2 -53 -9 0 -122 163 -122 175
0 3 9 5 21 5 12 0 19 5 16 13 -2 6 -11 12 -20 12 -8 0 -19 4 -24 9 -4 5 -3 6
4 2 6 -3 14 -2 18 4 5 9 -9 15 -18 8 -2 -2 -11 3 -20 11 -15 12 -25 71 -12 71
2 0 37 -46 77 -102z m-6722 84 c0 -4 -10 -13 -21 -20 -16 -10 -24 -11 -33 -2
-8 8 -7 13 4 20 18 12 50 13 50 2z m5271 -8 c7 -9 9 -18 3 -22 -12 -9 -13 -51
-1 -49 9 2 33 -51 26 -57 -2 -2 -15 -7 -29 -11 -23 -7 -23 -7 -7 9 19 19 22
36 7 36 -5 0 -10 -4 -10 -10 0 -6 -10 -5 -25 2 -13 6 -21 16 -18 21 5 8 8 7
11 -1 2 -7 11 -12 19 -12 13 0 13 3 3 15 -8 10 -24 14 -41 11 l-28 -4 17 26
c21 33 45 60 53 61 4 1 12 -6 20 -15z m-3719 -40 c-7 -12 -9 -8 -10 18 -1 26
1 30 9 16 6 -11 6 -24 1 -34z m2597 37 c8 -5 10 -14 5 -22 -51 -87 -57 -94
-65 -74 -13 33 -10 49 13 78 24 30 27 31 47 18z m-4233 -39 c-9 -2 -16 -12
-16 -23 0 -17 -27 -48 -91 -103 -11 -9 -19 -13 -19 -8 -1 4 -9 -3 -19 -15 -10
-12 -21 -19 -25 -16 -3 4 -6 1 -6 -5 0 -7 -7 -12 -16 -12 -8 0 -12 -5 -9 -11
5 -7 -15 -9 -59 -8 -36 1 -66 3 -66 5 0 5 179 146 244 192 57 40 60 41 79 25
17 -16 17 -18 3 -21z m4111 -18 c17 -16 16 -21 -2 -28 -17 -6 -88 51 -79 65 5
9 59 -15 81 -37z m-438 -21 c25 -14 46 -22 48 -17 12 33 20 33 81 1 53 -27 62
-36 62 -59 0 -16 5 -28 11 -28 6 0 8 9 4 23 -5 17 -4 19 4 7 9 -12 11 -11 11
8 0 12 4 22 9 22 13 0 -6 -55 -23 -70 -10 -7 -17 -6 -26 5 -7 8 -18 15 -24 15
-13 0 -225 120 -212 120 5 0 30 -12 55 -27z m-2045 8 c11 -18 -13 -60 -43 -76
-43 -21 -68 -19 -75 8 -11 40 -7 46 42 61 57 18 69 19 76 7z m961 -61 c132
-12 246 -26 253 -32 7 -6 12 -20 10 -31 -4 -24 -33 -28 -123 -16 -33 5 -134
15 -225 23 -227 21 -230 22 -230 50 0 30 5 34 43 30 18 -2 140 -13 272 -24z
m-1297 -10 c3 -7 0 -10 -7 -6 -6 4 -11 5 -11 3 0 -2 18 -16 40 -31 22 -14 40
-31 40 -36 0 -13 -33 -26 -134 -51 -45 -11 -92 -25 -105 -32 -26 -13 -96 -16
-108 -4 -4 4 -2 17 5 28 9 14 10 25 1 40 -13 24 -15 22 36 36 22 6 72 20 111
32 39 12 78 21 87 21 9 0 17 5 17 11 0 14 23 6 28 -11z m2282 -70 c8 -5 11
-10 5 -10 -5 0 -17 5 -25 10 -8 5 -10 10 -5 10 6 0 17 -5 25 -10z m45 -20 c3
-5 2 -10 -4 -10 -5 0 -13 5 -16 10 -3 6 -2 10 4 10 5 0 13 -4 16 -10z m-4939
-61 c29 -29 51 -56 48 -61 -3 -5 -2 -7 3 -6 5 2 24 -9 42 -24 28 -24 31 -30
18 -42 -12 -13 -26 -4 -101 68 -64 60 -85 87 -80 99 3 9 8 17 11 17 3 0 29
-23 59 -51z m4800 33 c0 -10 -6 -19 -13 -19 -8 0 -9 6 -2 19 5 10 11 18 12 18
2 0 3 -8 3 -18z m1385 -4 c39 -22 56 -54 22 -41 -10 4 -20 9 -23 12 -3 4 -18
12 -33 19 -15 7 -25 17 -22 22 8 14 12 13 56 -12z m-3881 -67 c0 -3 18 -30 40
-59 44 -57 48 -69 25 -69 -8 0 -15 3 -15 7 0 9 -67 40 -85 40 -20 0 -19 10 6
36 13 14 16 22 8 20 -25 -3 -38 -16 -55 -52 -18 -37 -45 -56 -52 -36 -2 7 -10
12 -18 12 -9 0 -13 4 -10 9 3 5 15 7 25 4 10 -3 22 0 25 6 5 7 1 8 -10 4 -16
-6 -16 -4 1 19 39 51 115 91 115 59z m6126 -83 c44 -60 69 -103 70 -121 0 -15
4 -30 7 -34 4 -3 7 -22 7 -41 0 -33 -2 -31 -70 62 -38 53 -73 104 -79 113 -14
27 -25 113 -14 113 5 0 41 -42 79 -92z m-352 10 c8 -13 19 -55 24 -94 9 -64
16 -78 77 -165 38 -51 69 -95 70 -96 1 -2 16 3 34 10 32 12 34 11 60 -22 14
-19 47 -60 73 -90 48 -57 56 -77 39 -109 -6 -9 -13 -30 -16 -47 l-7 -30 -26
34 c-15 18 -102 138 -194 265 -91 127 -180 250 -197 273 -17 23 -31 46 -31 51
0 8 56 40 72 41 4 1 14 -9 22 -21z m-2839 -6 c-3 -3 -11 0 -18 7 -9 10 -8 11
6 5 10 -3 15 -9 12 -12z m-1725 -21 c0 -23 -100 -64 -135 -55 -11 3 -40 -2
-64 -11 -24 -8 -46 -13 -48 -11 -4 3 216 81 240 85 4 0 7 -3 7 -8z m-1390 -33
c-11 -12 -22 -19 -26 -16 -7 8 29 46 38 41 4 -2 -1 -14 -12 -25z m-40 -30 c0
-6 -11 -8 -30 -4 -17 3 -31 1 -31 -4 -3 -20 -4 -25 -12 -37 -5 -7 -13 -13 -20
-13 -6 0 -2 7 9 15 10 8 13 15 7 15 -7 0 -18 -9 -25 -20 -7 -11 -17 -20 -21
-20 -5 0 -23 -11 -41 -25 -38 -29 -43 -30 -43 -10 0 13 46 57 127 123 22 18
27 19 52 6 16 -8 28 -19 28 -26z m2703 1 c12 -7 33 -21 47 -32 19 -16 20 -18
5 -12 -11 4 -31 7 -44 6 -30 -1 -52 16 -44 35 6 17 8 17 36 3z m673 -36 c-10
-10 -19 5 -10 18 6 11 8 11 12 0 2 -7 1 -15 -2 -18z m-4128 -63 c6 0 12 -8 11
-17 0 -10 -2 -13 -5 -8 -6 15 -94 5 -122 -13 -18 -12 -20 -17 -10 -24 10 -7 9
-9 -4 -5 -10 4 -32 -6 -54 -24 -20 -16 -33 -29 -29 -29 23 0 -100 -82 -126
-84 -29 -2 -54 15 -47 32 3 10 197 168 240 196 14 9 33 14 42 10 12 -4 16 0
16 16 0 19 3 18 38 -14 20 -20 43 -36 50 -36z m2132 51 c0 -26 -17 -36 -35
-21 -23 19 -18 40 10 40 18 0 25 -5 25 -19z m1980 -16 c0 -5 -5 -3 -10 5 -5 8
-10 20 -10 25 0 6 5 3 10 -5 5 -8 10 -19 10 -25z m-4859 -32 c-10 -21 -43 -81
-73 -134 -45 -79 -55 -105 -57 -148 -2 -57 6 -82 19 -60 5 7 6 -16 3 -52 -3
-35 -12 -73 -19 -84 -11 -15 -14 -16 -14 -4 0 8 5 20 12 27 9 9 9 15 0 24 -7
7 -12 20 -12 29 0 10 -5 21 -12 25 -6 4 -8 3 -4 -4 3 -5 2 -12 -3 -14 -15 -5
-50 -79 -44 -94 3 -8 10 -11 16 -7 6 4 7 1 2 -8 -17 -30 -38 -48 -49 -42 -6 4
-6 1 1 -8 10 -13 10 -16 -2 -16 -8 0 -15 4 -15 8 0 4 -7 6 -16 5 -20 -1 -39
27 -31 45 4 8 29 52 57 99 27 47 62 110 77 140 14 30 47 91 73 135 26 44 59
101 74 128 32 56 45 63 17 10z m1549 27 c0 -5 -5 -10 -11 -10 -5 0 -7 5 -4 10
3 6 8 10 11 10 2 0 4 -4 4 -10z m2816 -26 c18 -14 18 -14 -6 -3 -31 14 -36 19
-24 19 6 0 19 -7 30 -16z m1261 -206 c65 -83 66 -85 54 -105 -9 -17 -10 -17
-17 0 -4 12 -9 15 -14 7 -5 -7 -11 -6 -21 6 -10 13 -11 16 -1 10 11 -7 11 -4
0 13 -7 12 -14 17 -16 11 -2 -6 -8 -4 -15 3 -7 7 -25 27 -41 45 -29 31 -29 32
-11 52 10 11 21 20 26 20 4 0 29 -28 56 -62z m-3984 15 c-7 -2 -13 -12 -13
-21 0 -12 -3 -13 -11 -5 -14 14 -3 33 19 32 11 0 12 -3 5 -6z m-1052 -156
c160 -170 205 -225 139 -167 -13 11 -31 18 -40 15 -12 -4 -37 14 -81 59 -112
112 -189 194 -189 200 0 3 15 6 33 6 28 0 45 -14 138 -113z m1069 100 c0 -7
-14 -21 -30 -31 -44 -26 -81 -62 -72 -71 4 -5 2 -5 -5 -2 -6 4 -13 2 -15 -5
-3 -9 -6 -9 -12 0 -4 7 15 27 53 54 33 24 60 49 60 56 1 16 21 16 21 -1z
m3390 -87 c89 -46 88 -52 -2 -10 -34 16 -69 30 -75 30 -7 0 -13 5 -13 10 0 15
9 12 90 -30z m-5650 -6 c0 -5 -107 -188 -155 -264 -12 -19 -36 -58 -54 -87
-23 -37 -40 -53 -61 -58 -46 -10 -70 -40 -175 -222 -59 -102 -103 -169 -108
-164 -5 5 31 78 88 178 195 338 311 532 332 560 l22 28 19 -24 20 -24 12 24
c22 42 60 76 60 53z m3560 -20 c0 -16 -65 -48 -80 -39 -17 11 -11 21 23 38 41
20 57 21 57 1z m2060 -2 c0 -4 14 -13 32 -20 17 -6 29 -14 26 -17 -7 -8 -78
26 -78 37 0 4 5 8 10 8 6 0 10 -4 10 -8z m4170 -303 c34 -162 83 -398 109
-526 31 -151 53 -237 64 -248 9 -9 17 -19 17 -23 0 -3 30 -143 66 -310 48
-219 63 -307 55 -315 -6 -6 -12 -9 -14 -6 -2 2 -23 96 -47 209 -24 113 -56
264 -72 335 -66 293 -93 418 -169 788 -43 214 -79 391 -79 394 0 32 19 -48 70
-298z m-3442 138 c34 -41 62 -80 62 -86 0 -6 -9 -16 -19 -23 -10 -6 -17 -17
-14 -24 2 -7 -4 -17 -14 -22 -16 -9 -19 -7 -21 14 -1 13 3 24 8 24 6 0 10 4
10 10 0 5 -6 7 -13 4 -14 -5 -107 87 -107 106 0 6 -5 8 -11 4 -8 -4 -8 0 0 15
9 16 9 20 -2 15 -8 -3 -20 2 -27 11 -11 13 -9 20 16 46 l29 30 20 -24 c11 -13
48 -58 83 -100z m-4168 103 c8 -5 11 -12 7 -17 -5 -4 -12 -1 -17 7 -8 13 -10
12 -10 -2 0 -19 -8 -22 -34 -12 -15 6 -15 8 1 20 21 16 33 17 53 4z m1387 -97
c-3 -10 -5 -4 -5 12 0 17 2 24 5 18 2 -7 2 -21 0 -30z m-3126 -16 c-9 -23 -31
-46 -31 -32 0 10 33 65 37 61 2 -2 -1 -15 -6 -29z m4000 6 c-12 -20 -14 -14
-5 12 4 9 9 14 11 11 3 -2 0 -13 -6 -23z m-1243 -11 c-10 -2 -18 -8 -18 -13 0
-5 -5 -9 -12 -9 -6 0 -3 8 7 20 10 11 23 16 29 12 7 -4 5 -8 -6 -10z m5342 -9
c0 -19 -3 -24 -10 -17 -6 6 -8 18 -4 27 9 24 14 21 14 -10z m-7264 6 c7 -12
-15 -31 -28 -23 -9 6 1 34 12 34 5 0 12 -5 16 -11z m1734 -46 c-47 -19 -90
-39 -95 -43 -24 -20 -98 -38 -119 -30 -21 9 -21 9 0 9 11 1 24 5 30 9 5 5 27
14 50 21 35 11 40 16 36 37 -3 19 0 24 16 24 12 0 25 -6 29 -14 7 -12 16 -12
58 4 87 30 84 20 -5 -17z m3693 -187 c239 -290 232 -280 218 -302 -6 -11 -11
-15 -11 -10 0 5 -8 2 -19 -8 -17 -16 -19 -15 -42 18 -45 63 -151 191 -165 199
-8 5 -12 12 -9 18 4 5 -1 9 -9 9 -18 0 -21 16 -5 25 7 5 3 16 -12 31 -12 13
-26 21 -32 17 -6 -3 -7 -1 -3 5 4 6 -12 30 -36 53 -24 24 -37 39 -30 35 11 -7
11 -4 1 12 -7 12 -17 18 -21 16 -4 -3 -8 0 -8 7 0 6 -8 18 -17 26 -11 8 -12
11 -3 7 13 -7 13 -5 2 8 -10 13 -11 22 -2 37 6 12 12 21 15 21 2 0 87 -101
188 -224z m-4713 189 c-7 -9 -15 -13 -18 -10 -3 2 1 11 8 20 7 9 15 13 18 10
3 -2 -1 -11 -8 -20z m1230 -22 c0 -13 3 -23 8 -23 12 0 42 -77 42 -107 0 -21
-9 -9 -37 48 -20 41 -36 80 -34 88 1 7 -2 10 -8 6 -6 -3 -11 1 -11 10 0 9 5
13 10 10 6 -3 10 0 10 7 0 23 20 -15 20 -39z m1183 -36 c-32 -82 -41 -83 -12
-1 23 65 29 77 35 71 2 -2 -8 -33 -23 -70z m-3158 35 c-2 -16 -26 -66 -51
-110 -43 -76 -49 -82 -78 -82 -25 1 -28 2 -14 10 9 6 40 55 69 110 51 98 85
130 74 72z m5306 -109 c40 -44 76 -103 62 -103 -5 1 -24 21 -43 46 -19 26 -50
64 -67 86 -18 22 -33 45 -33 51 1 7 10 1 21 -13 11 -14 38 -44 60 -67z m-1300
46 c-5 -13 -12 -36 -15 -50 -5 -21 -46 -82 -46 -67 0 14 41 123 51 135 17 19
22 10 10 -18z m-909 -79 c3 -16 1 -30 -4 -30 -4 0 -8 14 -8 30 0 17 2 30 4 30
2 0 6 -13 8 -30z m-2567 0 c3 -6 -1 -7 -9 -4 -18 7 -21 14 -7 14 6 0 13 -4 16
-10z m373 -21 c-10 -6 -18 -16 -18 -24 0 -8 -6 -12 -14 -9 -7 3 -23 -7 -35
-22 -11 -15 -21 -23 -21 -19 0 5 -9 0 -19 -9 -21 -19 -52 -18 -59 2 -3 9 3 11
20 7 18 -4 36 6 83 49 39 35 63 51 70 44 7 -6 4 -13 -7 -19z m6089 -104 c39
-142 39 -144 13 -196 -23 -44 -35 -44 -43 -2 -3 16 -21 89 -41 163 -19 74 -34
135 -33 136 59 39 67 32 104 -101z m-1871 48 c15 -20 23 -33 16 -29 -13 8 -56
66 -49 66 3 0 17 -17 33 -37z m-5030 -22 c25 -24 39 -43 32 -47 -5 -4 -13 -3
-17 2 -3 5 -12 9 -18 10 -7 1 -19 2 -26 3 -8 0 -27 12 -43 26 -29 25 -50 33
-39 15 9 -15 -13 -12 -40 6 -43 28 -30 37 41 31 59 -6 71 -11 110 -46z m2691
-23 c-3 -8 -6 -5 -6 6 -1 11 2 17 5 13 3 -3 4 -12 1 -19z m-2810 -25 c3 -7 -2
-22 -11 -32 -10 -10 -18 -28 -19 -39 0 -11 -4 -19 -8 -16 -8 5 -22 -27 -14
-34 3 -3 5 1 5 8 0 7 3 11 6 7 6 -6 -64 -127 -80 -139 -8 -5 -38 4 -54 17 -2
1 27 59 63 128 57 106 70 124 87 119 11 -2 22 -11 25 -19z m3909 -1 c6 -4 11
-15 11 -24 0 -22 -30 -24 -47 -3 -20 25 8 46 36 27z m1299 -1 c3 -5 2 -12 -3
-15 -5 -3 -9 1 -9 9 0 17 3 19 12 6z m1308 -111 c6 -33 6 -33 -7 5 -7 22 -16
56 -19 75 -6 33 -6 33 7 -5 7 -22 16 -56 19 -75z m-7591 28 c-11 -18 -48 -80
-82 -138 -104 -175 -100 -170 -142 -170 -22 0 -38 5 -38 11 0 9 152 282 165
297 2 2 16 5 31 7 16 2 40 8 54 14 14 5 27 10 28 10 2 1 -5 -14 -16 -31z
m6338 9 c0 -2 -9 -12 -20 -22 -24 -21 -27 -14 -4 9 15 15 24 20 24 13z m14
-156 c36 -43 66 -84 66 -90 0 -13 -32 -31 -55 -31 -12 0 -15 5 -10 22 6 17 4
20 -9 15 -10 -4 -15 -3 -11 3 3 6 13 10 21 10 8 0 14 5 14 10 0 6 -5 10 -11
10 -6 0 -9 6 -6 14 3 8 0 19 -7 25 -9 8 -13 7 -13 -4 0 -8 5 -11 10 -8 6 3 7
1 3 -6 -11 -18 -25 -4 -21 24 1 16 -3 25 -11 25 -8 0 -14 6 -14 14 0 8 -7 17
-16 20 -12 5 -12 26 1 26 2 0 33 -36 69 -79z m1253 57 c-3 -8 -6 -5 -6 6 -1
11 2 17 5 13 3 -3 4 -12 1 -19z m-3603 -55 c9 -89 10 -202 1 -268 -10 -77 -15
-82 -16 -14 0 30 -3 85 -8 122 -4 39 -3 71 2 74 5 3 6 36 2 74 -5 44 -3 69 3
69 6 0 13 -26 16 -57z m537 34 c-10 -9 -11 -8 -5 6 3 10 9 15 12 12 3 -3 0
-11 -7 -18z m-5654 -34 c-3 -10 -5 -4 -5 12 0 17 2 24 5 18 2 -7 2 -21 0 -30z
m8742 -13 c0 -9 -4 -8 -9 5 -5 11 -9 27 -9 35 0 9 4 8 9 -5 5 -11 9 -27 9 -35z
m-6849 28 c0 -9 3 -9 12 0 18 18 27 15 25 -8 -1 -11 -5 -20 -10 -20 -5 0 -1
-7 7 -16 15 -14 13 -22 -25 -92 -23 -43 -45 -81 -49 -85 -8 -9 -64 16 -75 33
-5 8 65 159 87 188 13 15 28 16 28 0z m6035 -135 c-2 -7 0 -13 5 -13 6 0 10
-7 10 -15 0 -8 10 -44 22 -80 18 -57 19 -68 7 -80 -12 -13 -16 -12 -27 5 -9
14 -9 19 -1 18 6 -2 14 4 17 12 2 8 1 12 -4 7 -10 -10 -67 168 -68 215 -1 20
-4 34 -8 32 -14 -9 -19 18 -6 33 11 14 16 7 35 -53 12 -38 20 -75 18 -81z
m-1795 124 c0 -2 -10 -12 -22 -23 l-23 -19 19 23 c18 21 26 27 26 19z m-5686
-49 c-4 -13 -7 -32 -6 -43 5 -47 -47 -358 -62 -374 -11 -11 -16 -12 -16 -3 0
33 52 379 60 397 4 11 11 29 14 39 4 10 9 16 12 13 3 -3 2 -16 -2 -29z m-459
-43 c-4 -31 -9 -54 -12 -51 -3 2 -1 30 2 61 4 31 9 54 12 51 3 -2 1 -30 -2
-61z m7251 23 c0 -10 -1 -18 -3 -18 -1 0 -7 8 -12 18 -7 13 -6 19 2 19 7 0 13
-9 13 -19z m1524 -45 c0 -12 -5 -25 -12 -29 -7 -4 -8 -3 -4 4 4 7 3 12 -1 12
-7 0 -10 40 -4 60 3 12 21 -27 21 -47z m-5415 -28 l40 -50 -43 33 c-23 19 -39
39 -35 45 4 7 0 8 -12 3 -15 -5 -16 -4 -5 9 7 9 13 14 14 13 1 -2 20 -25 41
-53z m1723 -50 c-1 -61 -2 -65 -8 -30 -7 39 -7 38 -9 -17 0 -31 -5 -59 -10
-62 -5 -4 -7 4 -4 16 4 18 2 20 -6 8 -14 -21 -25 -6 -12 18 6 12 8 40 5 66 -4
28 -2 57 6 76 12 28 14 29 26 13 9 -12 13 -43 12 -88z m752 55 c-12 -23 -24
-40 -26 -37 -3 3 5 23 18 45 30 53 36 46 8 -8z m-1440 -67 c22 -48 39 -91 37
-96 -1 -5 -20 28 -41 74 -48 107 -49 109 -43 109 4 0 24 -39 47 -87z m-2024
46 c10 -8 11 -16 5 -22 -6 -6 -25 -2 -53 11 -28 14 -46 18 -52 12 -13 -13 -26
-13 -26 -1 0 23 98 23 126 0z m2513 -10 c1 -13 8 -27 15 -31 8 -6 7 -8 -2 -8
-9 0 -11 -7 -6 -22 8 -25 7 -138 -2 -185 l-6 -33 44 0 c24 0 49 -5 55 -11 8
-8 17 -8 31 0 16 8 21 7 26 -4 8 -22 44 -18 51 5 3 11 12 20 20 20 7 0 16 8
20 18 5 13 3 14 -5 6 -9 -9 -19 -8 -41 5 -34 19 -38 35 -6 26 29 -9 29 -9 51
0 11 5 26 3 38 -4 10 -6 24 -9 30 -5 6 4 9 3 6 -2 -8 -13 9 -54 22 -54 6 0 10
8 8 17 -4 22 66 98 81 89 13 -9 15 -36 2 -36 -5 0 -11 6 -14 13 -2 6 -8 9 -12
5 -4 -3 10 -18 32 -31 21 -14 41 -20 44 -15 3 5 10 9 15 7 12 -3 47 70 48 102
1 16 6 25 13 22 7 -3 1 -28 -19 -79 -33 -80 -30 -96 19 -115 21 -8 22 -11 11
-29 -14 -22 -13 -23 32 -50 8 -4 12 -11 9 -15 -4 -3 -13 0 -20 7 -13 12 -26
14 -54 9 -12 -2 52 -31 70 -31 7 0 15 10 18 22 4 12 9 20 12 17 3 -3 -2 -26
-10 -49 -9 -24 -13 -50 -11 -57 9 -21 66 -16 85 8 14 18 21 20 39 10 24 -13
45 -15 38 -3 -13 22 37 2 76 -30 39 -32 41 -37 29 -54 -8 -11 2 -2 22 19 19
20 41 37 48 37 7 0 -15 -28 -49 -63 -47 -47 -59 -66 -51 -74 9 -9 7 -11 -8 -7
-22 6 -32 -3 -38 -36 -3 -13 6 -27 28 -42 18 -12 35 -27 39 -32 4 -6 9 -8 12
-5 10 9 -29 76 -42 71 -8 -2 -10 2 -5 14 4 12 3 15 -5 10 -7 -4 -12 -2 -12 3
0 14 17 14 25 1 4 -6 11 -8 16 -4 5 3 9 2 8 -3 -4 -21 2 -33 15 -33 16 0 66
-42 66 -55 0 -4 -8 -13 -17 -20 -14 -11 -15 -15 -4 -28 7 -9 10 -24 7 -35 -4
-12 4 -27 24 -47 44 -42 54 -22 25 50 -24 58 -32 96 -18 82 3 -4 14 5 24 19
12 18 19 22 24 14 17 -28 53 -145 48 -154 -3 -5 -2 -6 4 -3 5 3 17 -10 27 -29
15 -32 20 -35 43 -29 l27 6 -25 -21 c-23 -20 -23 -21 -1 -10 12 6 28 8 34 4 7
-5 8 -3 3 6 -6 10 -4 12 9 7 11 -5 15 -3 10 5 -5 8 -2 9 10 5 14 -5 17 -3 12
8 -3 8 -1 15 4 15 6 0 10 -4 10 -10 0 -5 5 -10 11 -10 6 0 8 7 5 16 -5 13 -1
15 21 11 16 -3 43 1 60 8 28 12 33 12 33 0 0 -19 -68 -64 -89 -60 -10 2 -23
-5 -29 -16 -10 -15 -8 -22 10 -39 22 -20 22 -20 1 -20 -20 0 -40 -27 -28 -38
3 -3 5 -1 5 5 0 8 144 63 165 63 2 0 -7 -11 -21 -25 -22 -22 -24 -28 -13 -42
11 -13 10 -18 -10 -34 -13 -11 -29 -19 -36 -19 -7 0 -18 -7 -25 -15 -11 -13
-10 -14 6 -9 10 4 25 11 32 17 6 5 12 7 12 4 0 -3 3 -12 6 -20 3 -9 -3 -16
-15 -20 -12 -3 -21 -2 -21 3 0 4 -12 5 -27 2 -16 -3 -22 -7 -15 -9 6 -3 12
-11 12 -19 0 -8 5 -14 11 -14 5 0 7 -4 4 -10 -9 -15 13 -12 43 5 71 38 111 54
107 42 -3 -7 -27 -22 -53 -34 -58 -27 -88 -51 -95 -78 -3 -13 -5 -9 -6 13 0
17 -5 32 -10 32 -5 0 -8 -26 -6 -57 2 -32 4 -65 4 -75 1 -10 8 -15 19 -14 13
2 18 15 22 57 4 44 7 50 14 30 7 -19 13 -22 37 -17 30 6 41 -7 14 -18 -8 -3
-15 -16 -14 -28 0 -22 1 -22 9 -3 7 15 9 10 9 -22 1 -32 -3 -43 -14 -43 -21 0
-19 -20 3 -21 14 0 14 -2 2 -7 -20 -9 -20 -80 0 -92 13 -8 13 -13 -1 -39 -16
-27 -16 -28 1 -24 10 3 20 1 23 -4 11 -18 -99 -5 -138 16 -25 13 -57 21 -90
21 -57 0 -72 -14 -79 -78 -3 -30 0 -34 42 -52 49 -22 66 -25 57 -10 -3 6 1 10
9 10 9 0 16 5 16 12 0 6 3 9 6 6 3 -4 0 -16 -6 -28 -12 -22 -12 -22 11 -6 13
9 33 16 46 16 24 0 41 -18 27 -29 -5 -3 -16 -19 -24 -34 -11 -22 -12 -32 -2
-47 15 -24 15 -33 2 -25 -5 3 -10 -2 -10 -13 0 -10 -3 -22 -7 -26 -13 -12 -11
-35 3 -40 24 -9 15 -34 -13 -39 -27 -4 -27 -4 -5 -12 12 -4 22 -11 22 -16 0
-11 -7 -11 -47 0 -29 8 -32 7 -43 -20 -7 -16 -16 -29 -20 -29 -4 0 -6 -15 -6
-32 1 -26 -3 -32 -16 -30 -22 3 -192 -164 -182 -180 4 -7 3 -8 -4 -4 -8 5 -12
0 -12 -13 0 -22 -14 -28 -25 -11 -3 5 -16 0 -30 -12 l-24 -21 24 -23 c25 -23
34 -41 15 -29 -5 3 -10 -4 -10 -16 0 -16 -3 -19 -12 -12 -17 13 -67 11 -76 -3
-4 -6 -34 -20 -67 -32 -136 -46 -157 -56 -163 -70 -3 -9 0 -18 6 -20 7 -2 12
-8 12 -13 0 -14 -26 -10 -40 6 -10 12 -10 15 0 15 8 0 11 3 7 6 -9 9 -48 -6
-42 -17 3 -5 -2 -6 -11 -2 -11 4 -22 -1 -30 -12 -8 -10 -14 -15 -14 -11 0 4
-5 4 -10 1 -7 -4 -8 -11 -1 -18 5 -7 14 -31 20 -55 7 -23 21 -64 33 -90 12
-26 20 -54 19 -62 -1 -9 10 -38 24 -64 14 -27 23 -51 20 -54 -8 -8 -9 -6 -65
118 -32 73 -49 122 -46 136 5 20 3 21 -30 18 -20 -2 -47 -10 -60 -19 -30 -20
-51 -21 -35 -1 6 7 25 16 41 20 21 4 30 11 30 25 0 29 -15 33 -35 11 -14 -15
-15 -20 -4 -20 8 -1 -1 -7 -19 -15 -34 -15 -112 -16 -112 -2 0 5 20 5 43 2 33
-5 44 -3 45 7 1 7 4 34 8 60 3 26 4 62 0 81 l-6 34 -65 -23 c-36 -13 -71 -21
-79 -18 -8 3 -25 -1 -38 -10 -12 -9 -17 -16 -10 -16 6 0 12 -7 12 -15 0 -8 7
-15 15 -15 8 0 15 -4 15 -10 0 -5 11 -10 25 -10 34 0 31 -19 -5 -31 -16 -6
-30 -17 -30 -25 0 -8 -4 -14 -10 -14 -5 0 -10 -15 -10 -34 0 -42 -15 -56 -24
-22 -4 17 -16 26 -36 31 -23 5 -30 12 -30 30 0 13 -3 26 -7 28 -5 3 -7 -16 -6
-41 2 -41 1 -43 -6 -17 -7 24 -9 25 -10 8 -1 -25 -21 -42 -21 -18 0 9 -4 13
-10 10 -5 -3 -11 0 -11 7 -1 7 -5 -9 -9 -35 -10 -59 -11 -60 -40 -49 -14 5
-42 5 -67 0 -42 -9 -55 -5 -131 39 -2 1 1 10 7 20 10 17 10 17 11 0 0 -10 12
-22 26 -27 35 -14 34 -14 34 21 0 17 4 28 10 24 14 -9 13 48 -2 63 -19 19 -45
14 -51 -10 -5 -18 -8 -19 -21 -9 -9 7 -18 29 -22 49 -9 47 -30 87 -39 72 -4
-6 -2 -17 5 -25 6 -7 10 -31 7 -52 l-4 -38 -1 42 c-2 42 -2 42 -31 32 -15 -5
-34 -9 -40 -7 -14 3 -50 -81 -43 -101 3 -9 0 -11 -8 -6 -9 6 -11 4 -5 -5 4 -7
2 -16 -6 -21 -11 -7 -12 -12 -2 -28 10 -17 9 -19 -13 -17 -21 1 -24 5 -18 28
3 18 0 33 -10 43 -19 20 -30 19 -22 -1 4 -11 2 -15 -8 -11 -8 3 -17 1 -20 -6
-13 -28 8 62 25 107 18 49 17 66 -3 66 -21 0 -78 51 -78 71 0 10 -5 19 -11 19
-7 0 -9 10 -7 25 4 18 -2 32 -20 50 -13 14 -27 25 -31 25 -13 0 -71 -40 -71
-49 0 -5 -8 -12 -17 -15 -16 -6 -16 -6 0 12 16 18 14 22 -39 81 l-57 62 -23
-22 c-13 -12 -24 -19 -24 -14 0 4 -9 -2 -19 -14 -20 -23 -41 -21 -41 4 0 7 6
16 13 18 8 4 4 13 -14 29 -39 36 -43 57 -14 64 30 7 30 6 5 74 -12 30 -24 63
-27 73 -3 11 -11 16 -21 12 -8 -3 -25 4 -39 16 -12 13 -26 19 -30 14 -5 -4 -2
-10 5 -12 10 -4 10 -8 1 -19 -9 -11 -9 -14 1 -14 6 0 10 -5 8 -12 -2 -6 13
-28 34 -49 21 -20 38 -42 38 -48 0 -6 -13 -24 -30 -39 -28 -28 -41 -50 -21
-37 5 3 12 1 16 -4 3 -6 -4 -8 -16 -6 -13 3 -28 -3 -36 -13 -12 -16 -13 -15
-6 3 3 11 11 26 17 34 9 12 8 13 -6 8 -12 -4 -18 -2 -18 8 0 8 -4 15 -9 15 -5
0 -12 11 -15 25 -4 16 -11 23 -18 19 -7 -5 -8 -3 -3 6 8 13 14 8 43 -35 4 -5
17 -15 28 -22 18 -10 25 -9 38 5 14 16 14 20 -4 46 -10 16 -30 39 -45 52 -15
13 -24 28 -20 33 3 7 0 8 -9 5 -11 -4 -17 3 -22 22 -4 15 -13 39 -20 53 -19
35 -19 35 22 50 23 8 34 18 30 27 -3 7 1 20 9 28 17 17 20 46 5 46 -5 0 -10 8
-10 18 0 26 -23 53 -37 44 -8 -5 -8 -17 3 -47 17 -48 18 -75 3 -75 -6 0 -9 -6
-6 -13 4 -10 -2 -13 -20 -9 -17 3 -29 -2 -39 -16 -9 -13 -21 -18 -34 -15 -11
3 -20 0 -20 -6 0 -6 -7 -11 -15 -11 -8 0 -15 -4 -15 -10 0 -5 5 -10 10 -10 6
0 9 -3 8 -7 -4 -13 24 -103 32 -103 11 0 5 -39 -9 -53 -11 -10 -13 -7 -8 17 3
17 -3 47 -14 73 -10 23 -16 43 -13 43 3 0 -2 7 -10 16 -29 29 -25 34 69 76 33
15 61 31 63 36 4 14 -46 132 -66 157 -29 35 -43 65 -35 78 11 17 10 41 -2 50
-6 5 -3 7 7 3 10 -3 31 0 49 6 42 15 18 30 -36 22 -34 -4 -42 -2 -53 16 -9 14
-9 19 -2 15 8 -5 10 3 8 26 -3 33 -5 34 -48 37 -78 6 -70 22 11 22 71 0 200
28 137 29 -19 1 -28 6 -29 19 -1 9 -3 39 -5 66 -6 62 6 76 63 76 l46 0 -7 53
c-4 28 -8 62 -10 75 -1 12 -8 28 -14 34 -23 23 -11 28 53 24 61 -4 65 -3 65
16 0 12 -3 19 -6 15 -4 -3 -13 1 -21 9 -9 8 -21 13 -29 10 -7 -3 -14 0 -16 6
-2 6 -11 4 -21 -6 -21 -21 -21 -16 -2 31 11 27 18 34 26 26 6 -6 18 -9 27 -6
11 5 13 3 7 -8 -5 -8 -5 -11 1 -6 9 9 10 13 13 50 2 20 3 19 16 -8 9 -21 14
-24 14 -12 1 10 -3 27 -9 37 -7 13 -5 29 5 54 11 25 12 37 4 42 -8 4 -6 10 6
17 14 7 21 6 30 -6 10 -14 15 -13 45 14 22 20 29 34 23 40 -15 15 43 70 65 62
15 -6 15 -5 3 10 -11 14 -11 20 0 34 8 9 9 14 3 10 -6 -4 -19 2 -29 13 -10 11
-16 20 -14 21 2 0 12 2 22 4 14 3 16 0 7 -10 -9 -10 -7 -13 7 -10 10 2 20 4
22 4 2 1 -4 10 -14 21 -10 11 -21 17 -25 15 -4 -3 -13 2 -20 10 -7 8 -17 12
-23 8 -5 -3 -7 -1 -3 5 3 6 -6 20 -20 31 -24 19 -27 19 -50 4 -13 -8 -24 -11
-24 -5 0 5 7 12 15 16 19 7 19 30 0 46 -13 11 -20 9 -40 -10 -23 -21 -30 -20
-26 3 1 5 -3 6 -9 2 -6 -3 -18 2 -28 11 -16 17 -16 18 1 11 9 -3 17 -2 17 4 0
6 10 25 22 41 l21 30 -43 40 c-23 21 -39 42 -36 45 6 6 129 -103 139 -123 4
-8 -2 -10 -16 -7 -20 5 -20 3 6 -23 24 -25 30 -27 47 -16 24 15 26 7 4 -16
-15 -15 -14 -19 22 -49 22 -19 50 -40 64 -47 23 -13 28 -12 58 15 17 16 32 31
32 33 0 2 -12 7 -26 10 -14 4 -35 16 -47 26 l-21 20 24 25 c39 41 56 30 52
-34 0 -7 8 -23 18 -34 18 -18 18 -21 3 -44 -14 -21 -14 -26 -3 -33 13 -8 50 4
50 16 0 3 -4 2 -10 -1 -5 -3 -10 -1 -10 5 0 6 -6 8 -12 5 -7 -4 -2 3 11 14 13
12 31 21 42 21 22 0 36 20 20 29 -7 5 -1 17 19 36 22 21 30 24 30 13 0 -9 -9
-18 -20 -21 -25 -6 -27 -30 -2 -25 9 2 22 17 27 33 6 17 15 30 20 31 6 0 25 4
43 9 26 6 32 12 32 34 0 21 8 30 36 43 35 16 35 16 46 -8 12 -25 55 -43 67
-28 3 5 11 9 16 10 6 0 22 4 38 8 29 9 35 27 13 45 -10 9 -16 8 -26 -4 -15
-18 -26 -13 -33 15 -4 16 -3 19 7 10 10 -7 21 -6 41 4 26 14 60 12 51 -3 -3
-4 -1 -13 4 -21 8 -12 14 -12 46 -1 32 12 38 11 46 -3 6 -11 23 -16 56 -16 76
0 78 4 63 107 -21 141 -24 195 -9 204 20 13 33 5 37 -22z m-4902 -36 c-3 -10
-5 -2 -5 17 0 19 2 27 5 18 2 -10 2 -26 0 -35z m5543 9 c0 -16 -50 -136 -61
-147 -8 -7 -10 -6 -6 5 3 8 16 45 28 83 13 37 27 67 31 67 4 0 8 -4 8 -8z
m-5553 -79 c-3 -10 -5 -2 -5 17 0 19 2 27 5 18 2 -10 2 -26 0 -35z m2993 26
c0 -5 3 -8 8 -6 4 3 23 -9 42 -25 31 -27 32 -29 10 -23 -32 10 -96 65 -75 65
8 0 15 -5 15 -11z m5490 -61 c6 -24 22 -80 36 -126 25 -84 25 -116 -1 -126
-10 -3 -17 10 -26 52 -7 31 -16 65 -22 76 -22 44 -44 145 -34 155 21 21 36 10
47 -31z m-4690 0 c0 -5 -7 -3 -15 6 -8 8 -15 18 -15 22 0 3 7 1 15 -6 8 -7 15
-17 15 -22z m-3803 -35 c-3 -10 -5 -2 -5 17 0 19 2 27 5 18 2 -10 2 -26 0 -35z
m5213 21 c0 -2 -7 -4 -15 -4 -8 0 -15 4 -15 10 0 5 7 7 15 4 8 -4 15 -8 15
-10z m2790 -29 c0 -5 -5 -3 -10 5 -5 8 -10 20 -10 25 0 6 5 3 10 -5 5 -8 10
-19 10 -25z m-3180 -2 c0 -22 -29 -53 -50 -53 -25 0 -13 49 14 60 31 13 36 12
36 -7z m2070 -14 c0 -5 -5 -9 -11 -9 -5 0 -7 5 -4 10 10 16 -7 12 -28 -7 -20
-18 -20 -18 -2 10 14 21 20 25 31 16 8 -6 14 -15 14 -20z m2430 4 c0 -10 3
-29 5 -43 3 -16 0 -12 -9 10 -18 43 -19 50 -6 50 6 0 10 -8 10 -17z m-9333
-40 c-3 -10 -5 -4 -5 12 0 17 2 24 5 18 2 -7 2 -21 0 -30z m4187 -2 c-2 -3
-12 3 -22 13 -16 17 -16 18 5 5 12 -7 20 -15 17 -18z m1446 19 c0 -5 -2 -10
-4 -10 -3 0 -8 5 -11 10 -3 6 -1 10 4 10 6 0 11 -4 11 -10z m-810 -25 c-7 -8
-17 -15 -23 -15 -6 0 -2 8 9 19 22 21 33 19 14 -4z m760 -15 c0 -5 -4 -10 -9
-10 -6 0 -13 5 -16 10 -3 6 1 10 9 10 9 0 16 -4 16 -10z m-5593 -47 c-3 -10
-5 -2 -5 17 0 19 2 27 5 18 2 -10 2 -26 0 -35z m1330 25 c-3 -8 -6 -5 -6 6 -1
11 2 17 5 13 3 -3 4 -12 1 -19z m3070 -10 c-3 -8 -6 -5 -6 6 -1 11 2 17 5 13
3 -3 4 -12 1 -19z m-17 -3 c0 -8 -4 -15 -9 -15 -5 0 -18 -3 -28 -7 -17 -6 -17
-5 1 15 22 26 36 28 36 7z m-260 -5 c0 -5 -4 -10 -10 -10 -5 0 -10 5 -10 10 0
6 5 10 10 10 6 0 10 -4 10 -10z m-5277 -47 c-9 -88 -184 -1028 -194 -1038 -15
-15 -12 4 46 331 104 580 138 754 149 754 2 0 1 -21 -1 -47z m5322 17 c10 -11
16 -20 13 -20 -3 0 -13 9 -23 20 -10 11 -16 20 -13 20 3 0 13 -9 23 -20z
m-4178 -47 c-3 -10 -5 -2 -5 17 0 19 2 27 5 18 2 -10 2 -26 0 -35z m6323 38
c0 -5 -12 -17 -27 -26 l-28 -18 24 27 c26 28 31 31 31 17z m-2295 -51 c3 -5 1
-10 -4 -10 -6 0 -11 5 -11 10 0 6 2 10 4 10 3 0 8 -4 11 -10z m-4038 -57 c-3
-10 -5 -2 -5 17 0 19 2 27 5 18 2 -10 2 -26 0 -35z m1326 -14 c-6 -6 -7 3 -4
23 4 28 6 29 9 9 2 -13 0 -27 -5 -32z m2452 31 c3 -5 1 -10 -4 -10 -6 0 -11 5
-11 10 0 6 2 10 4 10 3 0 8 -4 11 -10z m-2848 -46 c17 -29 21 -48 17 -74 -10
-55 -18 -65 -37 -46 -15 15 -16 14 -21 -16 -3 -18 -10 -58 -15 -88 -5 -30 -7
-58 -4 -62 2 -5 -5 -8 -16 -8 -11 0 -22 4 -25 9 -3 5 1 55 9 112 9 57 18 127
22 154 9 77 34 84 70 19z m2811 6 c-7 -10 -14 -17 -17 -15 -4 4 18 35 25 35 2
0 -1 -9 -8 -20z m2162 10 c8 -5 11 -12 8 -16 -4 -3 -14 1 -23 10 -18 17 -9 21
15 6z m-5913 -47 c-3 -10 -5 -4 -5 12 0 17 2 24 5 18 2 -7 2 -21 0 -30z m-10
-65 c-3 -7 -5 -2 -5 12 0 14 2 19 5 13 2 -7 2 -19 0 -25z m3313 -28 c14 -11
22 -20 18 -20 -14 0 -58 23 -58 32 0 13 13 9 40 -12z m101 -40 c42 -12 123
-59 115 -67 -7 -7 -140 38 -147 50 -4 5 -13 6 -20 2 -8 -5 -11 -5 -7 0 4 4 2
15 -5 23 -10 13 -9 15 5 9 9 -3 36 -11 59 -17z m-386 -40 c3 -6 -1 -7 -9 -4
-18 7 -21 14 -7 14 6 0 13 -4 16 -10z m4485 -56 c24 -71 24 -69 -5 -78 -14 -4
-31 3 -55 23 l-35 29 23 25 c16 17 20 27 12 32 -8 5 -8 11 1 21 22 27 38 14
59 -52z m-5777 24 c-9 -18 -19 -35 -23 -38 -12 -9 -19 -54 -11 -64 4 -6 6 -32
3 -58 -3 -36 -9 -49 -24 -54 -35 -11 -39 7 -27 110 11 84 16 100 37 117 14 10
33 19 43 19 16 0 16 -2 2 -32z m-1233 -4 c0 -8 -4 -13 -8 -10 -4 3 -8 -14 -7
-37 1 -23 -5 -76 -12 -117 -12 -72 -68 -418 -94 -585 -9 -58 -18 -85 -34 -100
-12 -11 -30 -36 -40 -55 l-17 -35 21 23 c27 28 34 28 26 1 -4 -13 -3 -19 2
-16 8 5 44 -117 43 -148 0 -13 -50 -18 -66 -7 -7 4 -19 31 -27 60 -20 65 -16
141 18 362 14 91 39 253 55 360 40 272 39 269 75 228 l19 -23 9 45 c11 55 37
94 37 54z m3440 -13 c-9 -19 -30 -29 -30 -16 0 7 34 42 38 39 2 -1 -1 -12 -8
-23z m-57 3 c8 -8 -25 -44 -35 -38 -16 10 -8 44 10 44 10 0 21 -3 25 -6z
m5240 -101 c9 -32 19 -72 21 -89 3 -17 12 -48 20 -70 20 -58 29 -121 18 -128
-6 -3 -13 1 -16 10 -3 8 -9 13 -14 10 -19 -11 -32 15 -47 99 -9 50 -21 104
-26 121 -12 40 -11 61 1 85 17 31 26 23 43 -38z m-2478 -17 c-40 -18 -92 -30
-82 -19 12 12 69 31 92 31 15 0 12 -3 -10 -12z m1569 -37 c-16 -18 -16 -23 1
-94 17 -72 14 -126 -4 -96 -7 11 -9 11 -13 0 -3 -8 -9 9 -12 36 -4 28 -17 67
-28 88 l-20 39 38 39 c32 33 40 37 47 23 6 -10 3 -22 -9 -35z m-5264 -29 c27
-3 -23 -19 -62 -19 -34 -1 -47 7 -33 21 4 4 51 3 95 -2z m-303 -26 c-3 -3 -12
-4 -19 -1 -8 3 -5 6 6 6 11 1 17 -2 13 -5z m650 -30 c-3 -3 -12 -4 -19 -1 -8
3 -5 6 6 6 11 1 17 -2 13 -5z m2976 -24 c6 -22 -12 -27 -31 -8 -15 15 -16 32
-2 23 6 -3 10 -1 10 5 0 17 17 3 23 -20z m-4443 -22 c0 7 5 10 10 7 16 -10 12
-22 -10 -28 -15 -4 -20 0 -20 16 0 18 2 19 10 7 7 -11 10 -11 10 -2z m656 -15
c-10 -10 -19 5 -10 18 6 11 8 11 12 0 2 -7 1 -15 -2 -18z m-582 -12 c18 -7 17
-9 -10 -17 -16 -6 -42 -7 -59 -3 -23 5 -25 7 -8 8 12 0 25 6 28 11 7 12 22 12
49 1z m5583 -27 c-3 -3 -12 -4 -19 -1 -8 3 -5 6 6 6 11 1 17 -2 13 -5z m-4264
-11 c-7 -2 -21 -2 -30 0 -10 3 -4 5 12 5 17 0 24 -2 18 -5z m-95 -10 c-10 -2
-28 -2 -40 0 -13 2 -5 4 17 4 22 1 32 -1 23 -4z m192 -33 c-14 -4 -36 -8 -50
-8 -22 0 -22 1 5 8 17 4 39 8 50 8 16 0 15 -2 -5 -8z m280 -20 c-20 -13 -33
-13 -25 0 3 6 14 10 23 10 15 0 15 -2 2 -10z m-82 -7 c-10 -2 -28 -2 -40 0
-13 2 -5 4 17 4 22 1 32 -1 23 -4z m205 -39 c-10 -21 -25 -39 -33 -42 -9 -2
-11 0 -5 5 6 4 18 25 28 47 10 21 20 36 23 33 3 -3 -3 -22 -13 -43z m-1436 -6
c-3 -8 -6 -5 -6 6 -1 11 2 17 5 13 3 -3 4 -12 1 -19z m4030 16 c-3 -3 -12 -4
-19 -1 -8 3 -5 6 6 6 11 1 17 -2 13 -5z m-2682 -41 c8 -10 10 -24 5 -33 -4 -8
-11 -36 -14 -62 -4 -27 -11 -48 -16 -48 -4 0 -7 8 -5 18 2 9 4 45 4 80 1 65 6
73 26 45z m5306 -76 c-8 -8 -11 -5 -11 9 0 27 14 41 18 19 2 -9 -1 -22 -7 -28z
m-1751 3 c0 -5 -12 -10 -27 -10 -22 0 -25 2 -13 10 20 13 40 13 40 0z m-113
-16 c-3 -3 -12 -4 -19 -1 -8 3 -5 6 6 6 11 1 17 -2 13 -5z m106 -11 c-7 -2
-19 -2 -25 0 -7 3 -2 5 12 5 14 0 19 -2 13 -5z m3487 -21 c0 -10 -7 -42 -15
-72 -9 -30 -18 -65 -19 -77 -4 -20 -25 -64 -26 -53 0 3 9 52 20 110 11 58 20
106 20 107 0 2 5 3 10 3 6 0 10 -8 10 -18z m-8130 -12 c0 -5 -4 -10 -10 -10
-5 0 -10 5 -10 10 0 6 5 10 10 10 6 0 10 -4 10 -10z m983 3 c-13 -2 -35 -2
-50 0 -16 2 -5 4 22 4 28 0 40 -2 28 -4z m5238 -77 c-13 -15 -2 -33 24 -38 17
-3 20 -10 17 -48 -1 -25 -5 -59 -7 -77 -7 -37 -46 -67 -77 -57 -16 5 -18 8 -7
15 12 7 12 10 1 18 -11 7 -11 24 2 100 9 50 16 95 16 100 0 5 7 17 16 25 8 9
11 16 4 16 -7 0 -6 5 2 14 11 12 14 8 16 -21 2 -19 -1 -40 -7 -47z m-6481 50
c0 -3 -4 -8 -10 -11 -5 -3 -10 -1 -10 4 0 6 5 11 10 11 6 0 10 -2 10 -4z
m1323 -3 c-7 -2 -19 -2 -25 0 -7 3 -2 5 12 5 14 0 19 -2 13 -5z m-1485 -9 c-4
-3 -9 -5 -12 -5 -3 0 -22 -8 -41 -19 -20 -11 -45 -20 -56 -20 -19 0 -19 1 -2
19 16 17 42 25 97 30 11 0 17 -2 14 -5z m452 -49 c0 -26 -3 -33 -15 -29 -9 4
-15 19 -15 35 0 19 5 29 15 29 10 0 15 -11 15 -35z m1013 28 c-7 -2 -21 -2
-30 0 -10 3 -4 5 12 5 17 0 24 -2 18 -5z m2867 -13 c0 -5 -9 -10 -21 -10 -11
0 -17 5 -14 10 3 6 13 10 21 10 8 0 14 -4 14 -10z m2966 -53 c-10 -67 -26 -81
-20 -17 3 30 8 62 11 70 10 27 16 -8 9 -53z m-6248 46 c-10 -2 -26 -2 -35 0
-10 3 -2 5 17 5 19 0 27 -2 18 -5z m-1312 -65 c-3 -35 -9 -102 -13 -149 -6
-83 -6 -86 -29 -81 -28 5 -27 -1 -14 117 19 172 19 175 42 175 20 0 20 -4 14
-62z m146 -20 c-2 -24 -7 -46 -11 -50 -7 -8 -3 55 4 80 8 23 11 12 7 -30z
m8073 -55 c-4 -54 -13 -142 -20 -196 -15 -102 -26 -126 -85 -182 l-32 -30 5
30 c3 17 13 75 22 130 21 131 35 186 46 179 9 -5 15 16 24 95 7 63 11 71 31
71 13 0 14 -15 9 -97z m-7464 56 c-26 -16 -31 -25 -31 -58 0 -28 -6 -43 -22
-55 -13 -9 -16 -14 -8 -10 13 7 13 6 1 -10 -13 -16 -15 -16 -24 -1 -6 11 -3
24 7 40 9 13 16 37 16 52 0 60 8 69 51 65 l41 -4 -31 -19z m1056 15 c-3 -3
-12 -4 -19 -1 -8 3 -5 6 6 6 11 1 17 -2 13 -5z m-31 -19 c18 -14 18 -15 -5
-11 -14 1 -27 8 -29 14 -5 16 10 15 34 -3z m5524 -5 c-12 -23 -30 -27 -30 -7
0 17 10 27 27 27 11 0 11 -5 3 -20z m1517 2 c20 -13 -8 -153 -41 -202 -14 -22
-31 -40 -37 -40 -5 0 -8 -3 -5 -8 2 -4 -2 -18 -9 -32 -13 -24 -14 -23 -9 15 3
22 8 51 11 65 5 23 6 24 13 5 6 -17 8 -14 13 15 31 200 32 203 64 182z
m-12637 -24 c0 -7 3 -24 6 -38 l5 -25 -15 25 c-18 29 -20 50 -6 50 6 0 10 -6
10 -12z m613 -23 c-3 -9 -8 -14 -10 -11 -3 3 -2 9 2 15 9 16 15 13 8 -4z
m5067 11 c0 -11 -19 -15 -25 -6 -3 5 1 10 9 10 9 0 16 -2 16 -4z m-5046 -78
c3 -16 2 -28 -3 -28 -9 0 -21 33 -21 60 0 22 16 -1 24 -32z m7744 -4 c30 -13
58 -15 152 -9 73 4 111 3 105 -3 -5 -5 -82 -12 -170 -15 -120 -3 -152 -2 -127
6 l34 10 -29 13 c-15 7 -22 13 -15 13 7 1 29 -6 50 -15z m5109 -6 c-3 -8 -6
-5 -6 6 -1 11 2 17 5 13 3 -3 4 -12 1 -19z m329 -25 c-3 -10 -19 -88 -36 -173
-17 -85 -36 -159 -41 -164 -6 -6 -9 -5 -9 5 0 31 75 349 83 349 5 0 6 -8 3
-17z m-10221 -3 c3 -5 1 -10 -4 -10 -6 0 -11 5 -11 10 0 6 2 10 4 10 3 0 8 -4
11 -10z m4512 4 c-3 -3 -12 -4 -19 -1 -8 3 -5 6 6 6 11 1 17 -2 13 -5z m-7463
-20 c3 -8 2 -12 -4 -9 -6 3 -10 10 -10 16 0 14 7 11 14 -7z m7486 6 c-8 -5
-19 -10 -25 -10 -5 0 -3 5 5 10 8 5 20 10 25 10 6 0 3 -5 -5 -10z m5347 -12
c-3 -8 -6 -5 -6 6 -1 11 2 17 5 13 3 -3 4 -12 1 -19z m-2586 -49 c-9 -23 -10
-23 -10 -2 -1 12 2 30 6 40 6 15 8 15 11 2 1 -8 -2 -26 -7 -40z m2285 24 c-3
-16 -13 -68 -21 -117 -9 -48 -22 -98 -30 -109 -20 -28 -19 -23 10 118 13 66
25 123 25 128 0 4 5 7 11 7 7 0 9 -10 5 -27z m-7486 7 c0 -5 -5 -10 -11 -10
-5 0 -7 5 -4 10 3 6 8 10 11 10 2 0 4 -4 4 -10z m-1820 -38 c0 -9 -7 -25 -15
-35 -10 -15 -11 -25 -3 -43 6 -13 15 -24 19 -24 4 0 7 -8 7 -17 -1 -16 12 -59
54 -178 17 -49 39 -138 41 -165 1 -16 -3 -25 -13 -25 -16 0 -30 37 -94 245
-56 183 -70 240 -61 248 4 4 10 1 12 -5 8 -21 33 -15 33 8 0 11 5 17 10 14 6
-3 10 -14 10 -23z m943 21 c-13 -2 -35 -2 -50 0 -16 2 -5 4 22 4 28 0 40 -2
28 -4z m6054 -30 c-3 -10 -5 -4 -5 12 0 17 2 24 5 18 2 -7 2 -21 0 -30z
m-6174 20 c-7 -2 -19 -2 -25 0 -7 3 -2 5 12 5 14 0 19 -2 13 -5z m4022 -15
c-17 -4 -39 -5 -50 -1 -16 6 -11 9 20 13 49 7 70 -1 30 -12z m-3005 -8 c0 -5
-2 -10 -4 -10 -3 0 -8 5 -11 10 -3 6 -1 10 4 10 6 0 11 -4 11 -10z m3427 -16
c-9 -9 -114 -18 -105 -10 7 8 100 24 107 19 2 -2 1 -6 -2 -9z m-4288 -63 c11
-27 21 -55 21 -61 0 -6 7 -24 15 -39 17 -34 37 -117 25 -105 -13 14 -98 254
-90 254 4 0 17 -22 29 -49z m886 31 c-3 -3 -11 0 -18 7 -9 10 -8 11 6 5 10 -3
15 -9 12 -12z m5142 -34 c-6 -41 -34 -78 -61 -78 -6 0 -6 4 3 9 7 5 14 21 15
37 2 34 22 74 38 74 7 0 9 -15 5 -42z m-1738 22 c-8 -5 -47 -11 -85 -14 l-69
-5 65 13 c36 8 74 14 85 14 17 1 18 0 4 -8z m4955 -103 c-16 -86 -43 -169 -44
-138 0 19 28 167 42 216 19 70 21 17 2 -78z m-8355 94 c18 -12 -79 -63 -127
-67 -42 -3 -33 12 13 20 19 4 51 14 71 22 29 12 34 18 23 25 -8 5 -9 9 -4 9 6
0 16 -4 24 -9z m-3614 -64 c4 -23 16 -64 26 -92 23 -61 23 -66 3 -113 -19 -47
-26 -36 -54 82 -24 105 -25 112 -5 96 13 -11 14 -6 8 35 -8 61 12 54 22 -8z
m1105 -82 c7 -24 10 -54 7 -65 -3 -12 -1 -35 5 -51 6 -17 8 -33 5 -36 -6 -5
-59 159 -73 222 l-6 30 25 -28 c13 -15 30 -47 37 -72z m-841 10 c1 -17 -1 -17
-9 -5 -5 8 -9 26 -9 40 0 23 1 23 9 5 5 -11 9 -29 9 -40z m8294 5 c-2 -36 -8
-50 -33 -72 -17 -16 -37 -28 -45 -28 -16 0 -14 25 7 108 10 40 13 43 42 40 30
-3 31 -4 29 -48z m-5263 23 c-8 -3 -17 -9 -20 -13 -3 -3 -29 -19 -59 -34 -70
-36 -95 -50 -101 -56 -14 -14 -36 -7 -47 16 -10 22 -9 26 10 34 47 18 62 23
69 22 4 -1 20 3 35 9 30 13 89 26 113 27 13 0 13 0 0 -5z m-4688 -103 c6 -33
15 -60 20 -60 11 0 31 -78 88 -338 28 -129 57 -243 65 -255 21 -33 58 -211 44
-216 -8 -2 -8 -5 0 -10 6 -4 18 -45 26 -92 8 -46 22 -115 31 -154 17 -74 18
-85 14 -125 -2 -30 -88 345 -94 411 -2 26 -6 51 -8 55 -3 5 -11 32 -17 61 -8
34 -18 53 -30 56 -13 3 -23 28 -39 98 -12 52 -46 203 -77 335 -30 133 -55 254
-55 268 0 47 19 27 32 -34z m1695 -8 c13 -14 18 -88 7 -116 -4 -10 -18 -16
-39 -16 -25 0 -34 5 -39 23 -11 40 -6 55 23 85 21 20 27 33 20 43 -5 8 -9 19
-9 24 1 6 6 1 12 -10 7 -11 18 -26 25 -33z m6080 22 c-3 -3 -12 -4 -19 -1 -8
3 -5 6 6 6 11 1 17 -2 13 -5z m5213 -39 c-16 -47 -23 -40 -9 9 6 21 13 36 16
33 3 -3 0 -22 -7 -42z m-7920 -5 c0 -5 -5 -10 -11 -10 -5 0 -7 5 -4 10 3 6 8
10 11 10 2 0 4 -4 4 -10z m7624 1 c3 -5 -3 -44 -14 -87 -24 -95 -25 -114 -5
-114 19 0 19 -11 -1 -124 -11 -61 -28 -112 -51 -156 -34 -64 -62 -103 -50 -69
3 9 1 22 -4 30 -6 10 -9 8 -9 -10 0 -13 -3 -22 -6 -19 -3 3 -2 23 2 44 5 29 9
34 14 20 8 -23 36 74 50 175 6 39 13 76 17 82 4 6 7 56 8 112 0 55 4 106 9
113 8 14 32 16 40 3z m-915 -70 c12 -8 13 -20 2 -80 -11 -63 -30 -104 -32 -69
0 7 -7 -9 -15 -37 -16 -53 -44 -93 -44 -64 0 23 40 241 46 251 7 10 25 10 43
-1z m-9238 -26 c5 4 9 -3 9 -14 0 -12 -4 -21 -9 -21 -11 0 -21 26 -20 48 1 15
2 15 6 -1 2 -9 9 -15 14 -12z m7765 -47 c-4 -24 -12 -71 -17 -106 l-11 -63
-24 32 c-27 37 -27 38 -14 96 11 47 36 83 59 83 10 0 12 -10 7 -42z m-79 16
c-3 -3 -12 -4 -19 -1 -8 3 -5 6 6 6 11 1 17 -2 13 -5z m-5204 -24 c-9 -11 -19
-17 -21 -15 -6 6 18 35 29 35 5 0 1 -9 -8 -20z m-4308 -156 c41 -169 42 -178
30 -184 -6 -3 -23 55 -41 135 -45 202 -46 211 -34 199 6 -6 26 -74 45 -150z
m8415 116 c24 -15 7 -19 -20 -5 -15 8 -19 14 -10 14 8 1 22 -3 30 -9z m-5424
-99 c15 -44 32 -77 38 -74 5 3 6 2 3 -4 -8 -12 18 -112 32 -126 17 -17 13 -63
-9 -88 -10 -13 -19 -21 -20 -17 0 10 -55 205 -79 283 -10 33 -22 70 -25 83 -6
18 -3 22 12 22 16 0 26 -17 48 -79z m-2156 7 c0 -4 -8 -5 -17 -2 -14 4 -13 2
2 -7 25 -16 35 -29 35 -51 0 -12 -5 -15 -16 -11 -11 4 -15 1 -12 -13 2 -11 8
-21 15 -24 19 -8 0 -29 -33 -36 -29 -6 -30 -4 -42 46 -16 67 -15 75 3 60 12
-10 13 -6 8 24 -3 23 -1 42 8 52 11 14 15 13 31 -8 9 -13 18 -26 18 -30z m842
-93 c-8 -18 -11 -15 -21 20 -6 22 -14 60 -17 85 l-5 45 26 -65 c19 -47 23 -70
17 -85z m680 75 c6 -14 14 -34 18 -45 3 -11 16 -40 27 -65 11 -25 26 -63 32
-85 7 -22 22 -60 33 -85 11 -25 27 -67 35 -93 8 -26 18 -45 23 -42 5 3 14 -14
19 -37 6 -24 15 -55 20 -69 7 -23 3 -32 -31 -69 -22 -24 -43 -39 -48 -34 -5 5
-27 74 -50 154 -23 80 -52 183 -66 230 -13 47 -33 92 -43 100 -10 8 -27 45
-38 81 l-20 67 31 -9 c41 -12 39 -12 32 15 -3 12 -2 26 1 30 4 4 9 1 11 -6 2
-7 8 -24 14 -38z m8377 31 c15 -9 10 -74 -8 -109 -5 -9 -16 -37 -25 -62 -17
-49 -56 -85 -56 -53 0 10 9 65 20 123 11 58 20 106 20 107 0 7 36 2 49 -6z
m-4289 -66 c20 -24 6 -28 -15 -5 -10 11 -13 20 -8 20 6 0 16 -7 23 -15z m4859
-132 c-17 -104 -29 -148 -48 -180 -27 -43 -46 -57 -37 -25 2 9 7 43 11 75 4
33 12 60 19 63 8 3 19 39 26 82 11 69 37 138 48 128 2 -3 -6 -67 -19 -143z
m-1665 125 c-5 -8 -2 -9 9 -5 12 4 17 1 17 -11 0 -15 2 -15 10 -2 8 13 10 12
10 -2 0 -12 -8 -18 -24 -18 -13 0 -26 -5 -28 -12 -3 -7 -9 -8 -18 -3 -11 7
-10 10 4 15 17 6 17 8 3 22 -17 17 -13 28 10 28 8 0 11 -5 7 -12z m-7947 -129
c26 -76 28 -109 9 -109 -15 0 -46 88 -51 148 -6 54 18 33 42 -39z m7283 61 c0
-5 -2 -10 -4 -10 -3 0 -8 5 -11 10 -3 6 -1 10 4 10 6 0 11 -4 11 -10z m-5240
-5 c0 -2 -12 -11 -27 -20 -27 -15 -27 -16 -3 -10 19 5 21 4 9 -4 -8 -6 -26 -7
-40 -4 -23 6 -22 8 16 25 45 20 45 20 45 13z m538 -32 c-21 -20 -41 -34 -45
-29 -8 8 54 65 72 66 5 0 -7 -17 -27 -37z m1379 5 c-3 -8 -6 -5 -6 6 -1 11 2
17 5 13 3 -3 4 -12 1 -19z m3321 1 c2 -5 10 -9 19 -9 8 0 27 -9 43 -20 15 -11
29 -18 31 -15 3 2 5 -4 5 -14 0 -11 -6 -17 -13 -14 -7 3 -13 8 -13 12 0 14
-52 32 -74 26 -17 -5 -18 -4 -6 5 12 10 11 11 -8 7 -12 -3 -20 -1 -17 3 3 5
-3 16 -12 26 -17 17 -16 17 12 10 17 -4 32 -12 33 -17z m2889 -11 c-3 -7 -5
-2 -5 12 0 14 2 19 5 13 2 -7 2 -19 0 -25z m-1444 6 c30 -7 33 -22 18 -88 -13
-55 -88 -129 -79 -78 2 11 -2 25 -8 33 -8 10 -9 33 -1 82 8 54 13 66 26 63 9
-3 28 -8 44 -12z m-5513 -13 c0 -11 -29 -35 -35 -29 -10 9 7 38 21 38 8 0 14
-4 14 -9z m845 -9 c-3 -3 -11 0 -18 7 -9 10 -8 11 6 5 10 -3 15 -9 12 -12z
m835 -85 c-1 -14 -67 58 -81 88 -6 11 10 -2 35 -28 26 -27 46 -54 46 -60z
m-1774 43 c-21 -54 -20 -77 5 -85 11 -4 18 -9 16 -12 -3 -3 -21 1 -39 7 l-34
13 15 45 c14 45 41 86 49 77 3 -2 -3 -22 -12 -45z m-4168 -28 c-2 -22 0 -38 4
-36 5 3 8 -4 8 -15 0 -10 8 -39 18 -63 14 -33 16 -50 9 -75 -8 -26 -3 -55 23
-150 18 -65 36 -124 41 -133 13 -23 59 -221 54 -230 -2 -4 4 -38 15 -76 11
-38 19 -87 18 -109 -1 -22 1 -67 5 -100 12 -98 -15 -45 -52 98 -17 67 -60 235
-96 372 -115 440 -118 454 -105 470 7 8 17 12 23 8 6 -4 8 2 4 16 -3 12 -1 36
5 52 14 41 31 22 26 -29z m8462 44 c0 -3 -4 -8 -10 -11 -5 -3 -10 -1 -10 4 0
6 5 11 10 11 6 0 10 -2 10 -4z m3420 -57 c-12 -59 -28 -104 -35 -97 -6 5 20
132 30 148 14 22 15 2 5 -51z m-3426 -33 c-20 -37 -38 -65 -40 -64 -6 6 8 48
16 48 4 0 13 15 20 33 15 36 31 60 37 53 2 -2 -13 -34 -33 -70z m-3784 20 c0
-6 -5 -3 -11 7 -6 9 -14 15 -20 12 -11 -7 -12 8 -2 19 8 8 33 -22 33 -38z
m3290 39 c0 -4 -7 -19 -15 -35 -26 -51 -44 -31 -20 23 6 15 35 25 35 12z
m-2905 -25 c13 -6 15 -9 5 -9 -8 0 -22 4 -30 9 -18 12 -2 12 25 0z m-3721 -64
c19 -64 20 -109 2 -51 -16 50 -27 105 -21 105 2 0 11 -24 19 -54z m2710 -45
c-30 -82 -45 -89 -19 -9 21 62 35 92 41 85 3 -2 -7 -37 -22 -76z m-2176 34
c-3 -3 -9 2 -12 12 -6 14 -5 15 5 6 7 -7 10 -15 7 -18z m9315 5 c-3 -12 -8
-19 -11 -16 -5 6 5 36 12 36 2 0 2 -9 -1 -20z m-1706 -32 c-3 -7 -5 -2 -5 12
0 14 2 19 5 13 2 -7 2 -19 0 -25z m-6242 -28 c21 -22 37 -40 34 -40 -3 0 -23
18 -44 40 -21 22 -37 40 -34 40 3 0 23 -18 44 -40z m5190 -9 c-6 -5 -25 10
-25 20 0 5 6 4 14 -3 8 -7 12 -15 11 -17z m-3738 -3 c18 -2 20 -6 12 -18 -8
-11 -12 -12 -16 -2 -2 6 -13 12 -24 12 -11 0 -19 7 -19 16 0 12 3 14 13 6 6
-5 22 -12 34 -14z m-4411 -59 c3 -24 12 -51 20 -59 16 -18 48 -139 40 -148 -3
-3 -6 2 -6 11 0 9 -7 20 -16 25 -13 7 -64 186 -64 225 0 29 21 -13 26 -54z
m4511 29 c-3 -7 -5 -2 -5 12 0 14 2 19 5 13 2 -7 2 -19 0 -25z m2044 15 c16
-3 29 -11 29 -18 0 -15 -84 4 -102 24 -11 11 -8 12 16 7 15 -4 41 -10 57 -13z
m-5471 -90 c11 -36 19 -67 18 -68 -2 -2 -13 -5 -24 -9 -18 -6 -23 0 -34 39
-16 59 -18 87 -5 101 16 18 23 8 45 -63z m1948 41 c2 -1 -1 -5 -7 -8 -5 -4
-15 4 -22 16 -12 22 -11 22 7 8 10 -8 20 -15 22 -16z m1490 -1 c-1 -10 1 -24
6 -31 10 -17 -1 -29 -15 -15 -5 5 -7 22 -3 37 7 29 17 36 12 9z m2018 -40
c-10 -10 -19 5 -10 18 6 11 8 11 12 0 2 -7 1 -15 -2 -18z m1286 -13 c-9 -16
-23 -32 -29 -34 -7 -3 -3 10 10 29 27 43 43 46 19 5z m1196 20 c10 0 12 -9 7
-32 -8 -38 -29 -58 -62 -58 -24 0 -31 14 -12 25 6 4 10 19 9 33 -3 42 -1 45
23 38 12 -3 28 -6 35 -6z m-5953 -20 c10 -11 14 -20 9 -20 -5 0 -15 9 -22 20
-7 11 -11 20 -9 20 2 0 12 -9 22 -20z m-5101 -110 c40 -185 66 -323 62 -327
-2 -3 -7 4 -10 14 -6 19 -86 420 -86 430 0 23 12 -18 34 -117z m7936 68 c11
-18 20 -27 20 -20 0 7 5 10 11 6 8 -5 8 -9 -1 -14 -7 -4 -9 -13 -5 -20 5 -8
10 -9 14 -1 10 16 92 -100 85 -121 -5 -18 14 -64 23 -54 3 3 0 12 -7 21 -7 9
-10 18 -6 22 3 3 7 4 9 2 1 -2 12 -18 24 -35 21 -30 21 -44 1 -44 -4 0 -7 6
-5 13 1 6 -5 11 -14 9 -16 -2 -42 43 -38 64 4 22 -2 27 -13 11 -9 -11 -18 -14
-27 -8 -11 7 -9 10 8 16 11 3 21 11 21 17 0 5 -7 8 -15 4 -9 -3 -15 0 -15 8 0
8 -7 17 -16 20 -9 4 -14 13 -10 22 3 8 2 13 -3 10 -5 -3 -19 15 -32 39 -13 25
-27 45 -31 45 -5 0 -8 5 -8 10 0 18 10 11 30 -22z m-5239 -29 c10 -66 -7 -85
-22 -26 -7 26 -17 47 -22 47 -5 0 -4 7 3 15 20 25 34 12 41 -36z m2459 11 c6
-11 9 -20 7 -20 -2 0 -12 9 -22 20 -10 11 -13 20 -7 20 6 0 16 -9 22 -20z
m2118 -25 c-3 -3 -9 2 -12 12 -6 14 -5 15 5 6 7 -7 10 -15 7 -18z m-2409 -9
c17 -20 -4 -60 -26 -52 -9 4 -24 -1 -34 -10 -18 -16 -19 -16 -19 0 0 21 40 75
56 75 6 1 17 -5 23 -13z m5011 -48 c0 -6 -7 -5 -15 2 -13 11 -18 11 -28 0 -8
-8 -8 -11 -1 -7 17 10 39 -19 23 -29 -8 -5 -9 -3 -4 6 6 10 4 12 -9 7 -11 -4
-28 1 -43 13 l-25 20 23 9 c26 9 79 -5 79 -21z m2090 2 c0 -11 -2 -20 -4 -20
-2 0 -6 9 -9 20 -3 11 -1 20 4 20 5 0 9 -9 9 -20z m46 -44 c-11 -66 -26 -68
-26 -3 0 48 2 55 16 50 13 -5 15 -14 10 -47z m-6562 12 c-4 -13 -8 -25 -9 -28
-1 -9 -24 -45 -25 -39 0 13 33 100 37 95 3 -2 1 -15 -3 -28z m495 -27 c-9 -30
-15 -38 -21 -29 -6 8 -7 2 -3 -17 4 -16 3 -27 -1 -22 -4 4 -16 0 -26 -10 -28
-25 -29 -13 -3 37 13 25 29 58 36 73 18 44 33 18 18 -32z m4813 46 c15 -12 12
-20 -29 -92 -53 -94 -122 -152 -156 -133 -16 8 -24 6 -40 -13 -15 -19 -14 -15
4 16 12 22 31 52 41 67 10 14 18 35 18 45 0 26 49 99 74 112 29 14 68 13 88
-2z m-5086 -41 c-9 -19 -16 -40 -16 -47 0 -7 -3 -9 -6 -6 -4 4 1 27 11 52 9
26 19 44 22 41 3 -3 -2 -21 -11 -40z m2322 8 c-4 -3 -12 5 -18 18 -12 22 -12
22 6 6 10 -10 15 -20 12 -24z m-5869 -24 c1 -13 0 -13 -9 0 -5 8 -9 24 -9 35
l0 20 9 -20 c5 -11 9 -27 9 -35z m4891 -42 c0 -5 -2 -8 -4 -8 -5 0 -46 79 -46
88 1 9 50 -71 50 -80z m5898 67 c2 -1 -4 -37 -13 -80 -8 -42 -13 -80 -11 -84
3 -5 -6 -19 -19 -31 -27 -25 -33 -60 -12 -60 8 0 24 -11 37 -25 l23 -24 -28
-11 c-28 -11 -60 -6 -83 13 -11 8 -11 12 0 19 10 6 10 10 1 16 -8 5 -5 38 13
127 33 164 31 158 62 150 15 -4 28 -8 30 -10z m-961 -17 c-3 -8 -6 -5 -6 6 -1
11 2 17 5 13 3 -3 4 -12 1 -19z m-9354 -72 c9 -35 17 -79 16 -98 -1 -23 -8 -7
-24 57 -27 104 -28 105 -17 105 4 0 16 -29 25 -64z m2447 -44 c0 -7 4 -11 8
-8 5 3 26 -12 47 -34 37 -38 38 -39 21 -64 -22 -34 -36 -33 -75 8 -25 26 -31
39 -26 55 5 17 -3 32 -35 67 -35 38 -40 48 -29 61 12 13 18 10 51 -28 20 -24
38 -50 38 -57z m2150 63 c0 -5 -5 -3 -10 5 -5 8 -10 20 -10 25 0 6 5 3 10 -5
5 -8 10 -19 10 -25z m4741 -12 c-9 -16 -10 -16 -11 -1 0 9 3 25 7 35 7 16 8
17 11 1 2 -10 -1 -25 -7 -35z m-606 27 c3 -6 -1 -7 -9 -4 -18 7 -21 14 -7 14
6 0 13 -4 16 -10z m69 -61 c1 -19 -5 -25 -29 -27 l-30 -2 28 21 c22 17 26 24
15 31 -10 8 -10 9 2 6 8 -3 14 -15 14 -29z m-7333 -2 c14 -12 46 -47 70 -77
71 -89 91 -111 158 -182 35 -38 61 -68 56 -68 -4 0 -2 -6 4 -14 9 -10 8 -16
-4 -26 -13 -11 -18 -10 -28 3 -63 81 -114 137 -124 137 -6 0 -48 44 -94 98
-45 53 -89 105 -97 114 -32 38 17 51 59 15z m1566 -9 c-3 -7 -5 -2 -5 12 0 14
2 19 5 13 2 -7 2 -19 0 -25z m1578 -10 c-1 -15 2 -28 7 -28 4 0 8 -9 8 -21 0
-11 4 -18 8 -15 4 2 12 -11 18 -30 6 -19 7 -34 2 -34 -9 0 -60 107 -61 128 0
6 -4 12 -9 12 -5 0 -7 4 -4 8 12 20 33 7 31 -20z m-4635 -31 c0 -10 -4 -15
-10 -12 -5 3 -10 18 -10 33 0 21 2 24 10 12 5 -8 10 -23 10 -33z m9433 -4 c-3
-7 -9 -13 -13 -13 -11 0 -21 30 -15 41 8 13 33 -13 28 -28z m-5076 -15 c-3 -7
-5 -2 -5 12 0 14 2 19 5 13 2 -7 2 -19 0 -25z m5193 -1 c69 -34 77 -50 49
-104 l-12 -22 -46 25 c-45 24 -93 51 -119 67 -9 7 -4 16 20 38 18 16 35 29 38
29 3 0 34 -15 70 -33z m-9787 -28 c10 -28 14 -55 11 -60 -9 -14 -31 -10 -38 7
-9 24 -7 104 2 104 5 0 16 -23 25 -51z m525 30 c10 -15 11 -24 3 -32 -15 -15
-46 16 -38 37 9 22 20 20 35 -5z m537 -10 c11 -17 -1 -21 -15 -4 -8 9 -8 15
-2 15 6 0 14 -5 17 -11z m2021 -46 c-8 -15 -26 -41 -41 -58 l-25 -30 6 30 c8
36 68 119 72 100 2 -8 -4 -26 -12 -42z m5229 47 c-3 -5 -1 -10 5 -10 6 0 16
-4 23 -10 7 -5 25 -20 40 -32 l28 -23 -24 0 c-14 0 -23 3 -20 8 2 4 -4 7 -13
7 -10 0 -14 3 -11 7 9 9 -24 32 -48 33 -20 1 -20 1 -1 15 23 17 30 19 21 5z
m-4959 -67 c-9 -27 -25 -56 -36 -66 -20 -17 -20 -16 -14 10 4 16 10 30 13 33
3 3 15 22 26 42 26 50 31 41 11 -19z m1247 37 c-3 -12 -8 -19 -11 -16 -5 6 5
36 12 36 2 0 2 -9 -1 -20z m52 -70 c28 -56 34 -90 11 -71 -12 10 -46 96 -46
115 0 16 12 1 35 -44z m-3833 -31 c-9 -13 -9 -20 0 -25 7 -5 9 -2 4 7 -4 8 2
3 13 -11 12 -14 30 -35 40 -47 19 -22 18 -22 -1 -29 -11 -3 -20 -4 -21 -2 -2
1 -24 31 -50 65 -30 39 -45 68 -41 75 21 33 28 35 48 10 15 -19 17 -28 8 -43z
m10316 56 c26 -8 29 -40 7 -72 -18 -25 -83 -68 -92 -60 -3 4 2 38 12 77 14 56
21 70 34 66 9 -2 26 -7 39 -11z m-2978 0 c0 -8 -32 -57 -52 -79 -10 -11 -18
-24 -18 -28 0 -5 -4 -6 -10 -3 -5 3 -10 1 -10 -6 0 -7 -3 -9 -7 -5 -5 4 0 14
10 21 10 7 16 17 15 21 -5 16 41 84 57 84 8 0 15 -2 15 -5z m-6965 -25 c-3 -5
-1 -10 5 -10 6 0 8 -5 5 -10 -4 -6 -11 -8 -16 -5 -13 9 -50 -5 -44 -15 3 -5 0
-12 -6 -16 -7 -4 -9 -3 -5 4 3 6 2 13 -4 17 -5 3 -10 0 -10 -7 0 -9 -3 -9 -10
2 -8 12 -10 12 -10 1 0 -8 -2 -12 -5 -9 -3 3 -1 16 4 29 5 13 10 17 11 9 0
-13 1 -13 10 0 5 8 10 12 10 8 0 -4 10 -3 23 2 30 12 49 12 42 0z m2230 -12
c22 -10 28 -9 36 3 5 8 9 9 9 3 0 -5 -6 -19 -14 -29 -13 -18 -14 -18 -50 4
-20 13 -36 25 -36 27 0 8 29 4 55 -8z m7203 -14 c2 -1 -5 -7 -15 -12 -11 -6
-26 -6 -38 -1 -18 8 -17 9 3 5 20 -4 23 -1 19 15 -5 17 -3 18 11 7 9 -7 19
-13 20 -14z m-2185 -3 c33 -17 33 -22 2 -75 -30 -51 -63 -81 -98 -88 -38 -7
-48 3 -32 32 9 15 14 19 15 10 0 -13 1 -13 10 0 13 20 13 33 -1 24 -12 -7 0
19 38 79 13 21 27 37 31 35 4 -2 19 -10 35 -17z m2251 -31 c9 0 14 -4 11 -10
-3 -5 1 -10 9 -10 19 0 21 -25 4 -36 -7 -5 -8 -3 -3 6 5 9 2 10 -13 6 -13 -5
-23 -2 -29 8 -8 15 -10 16 -45 16 -21 1 -21 2 -5 11 10 6 25 8 33 5 9 -4 12
-2 8 5 -3 6 -18 8 -33 5 -25 -6 -25 -6 -7 9 17 13 21 13 36 0 9 -8 24 -15 34
-15z m-6759 0 c9 -30 -2 -40 -45 -40 -25 0 -40 5 -44 16 -14 36 -7 44 38 44
36 0 46 -4 51 -20z m-2850 -22 c-4 -18 8 -39 51 -91 31 -37 54 -70 52 -73 -5
-4 -103 112 -122 143 -4 7 -1 19 6 27 18 21 19 20 13 -6z m8833 -9 c68 -38 94
-60 35 -30 -53 27 -81 27 -30 0 47 -25 48 -34 2 -15 -48 21 -72 35 -57 36 22
0 13 18 -15 28 -19 7 -22 11 -10 11 10 1 44 -13 75 -30z m-8883 10 c-9 -13
-116 -61 -123 -54 -3 3 9 11 26 17 18 7 32 16 32 20 0 4 9 8 19 8 11 0 23 5
26 10 3 6 11 10 16 10 6 0 7 -5 4 -11z m1190 -16 c-21 -34 -45 -54 -56 -47 -5
3 -9 -2 -9 -10 0 -16 -18 -31 -27 -23 -7 7 57 73 68 70 5 -2 9 3 9 11 0 12 11
21 29 25 2 1 -5 -11 -14 -26z m4960 -3 c3 -6 -1 -7 -9 -4 -18 7 -21 14 -7 14
6 0 13 -4 16 -10z m-3885 -12 c0 -5 4 -7 9 -4 11 7 144 -59 161 -79 10 -12 9
-16 -3 -21 -20 -7 -194 81 -194 99 0 7 6 14 14 14 7 0 13 -4 13 -9z m4744 -20
c-8 -26 -70 -124 -84 -133 -20 -13 -9 17 28 72 60 91 69 101 56 61z m-6565
-112 c9 -10 11 -17 5 -15 -15 5 -84 88 -84 100 0 9 25 -18 79 -85z m2366 47
c-9 -37 -18 -20 -9 19 4 18 9 27 11 20 3 -7 2 -24 -2 -39z m3317 5 c-6 -6 -7
0 -4 19 5 21 7 23 10 9 2 -10 0 -22 -6 -28z m2843 13 c-6 -5 -25 10 -25 20 0
5 6 4 14 -3 8 -7 12 -15 11 -17z m-5492 2 c-7 -2 -19 -2 -25 0 -7 3 -2 5 12 5
14 0 19 -2 13 -5z m-4886 -40 c-3 -10 -5 -4 -5 12 0 17 2 24 5 18 2 -7 2 -21
0 -30z m7566 7 c3 -11 1 -18 -4 -14 -5 3 -9 12 -9 20 0 20 7 17 13 -6z m646
-37 c2 -1 -21 -40 -51 -85 -30 -46 -61 -94 -68 -108 -8 -15 -15 -20 -18 -12
-2 7 1 19 8 27 6 8 8 20 4 26 -4 7 -3 9 4 5 15 -9 23 8 24 47 0 17 5 40 10 50
5 11 5 17 -2 17 -15 0 -12 32 6 58 l15 22 32 -23 c18 -12 34 -23 36 -24z m435
10 c-24 -36 -37 -59 -64 -111 -25 -49 -67 -80 -55 -41 4 12 12 27 16 33 5 6
24 34 41 61 36 58 69 97 76 90 3 -2 -4 -17 -14 -32z m-11117 5 c-3 -8 -6 -5
-6 6 -1 11 2 17 5 13 3 -3 4 -12 1 -19z m6700 0 c-3 -8 -6 -5 -6 6 -1 11 2 17
5 13 3 -3 4 -12 1 -19z m4549 -14 c19 -15 34 -30 34 -35 0 -11 -79 43 -80 54
0 12 10 8 46 -19z m-3453 2 c7 -19 -7 -30 -68 -50 -47 -15 -51 -15 -62 1 -7 9
-13 25 -13 34 0 13 6 16 28 13 16 -3 39 0 53 5 35 14 56 13 62 -3z m-7786 -43
c-3 -10 -5 -4 -5 12 0 17 2 24 5 18 2 -7 2 -21 0 -30z m4368 17 c10 -11 16
-20 13 -20 -3 0 -13 9 -23 20 -10 11 -16 20 -13 20 3 0 13 -9 23 -20z m2331
-5 c-5 -27 -25 -66 -26 -49 0 6 3 26 6 43 8 36 27 43 20 6z m-370 -20 c3 -6 0
-24 -5 -39 -9 -22 -14 -25 -30 -17 -10 6 -21 18 -25 26 -3 9 -2 13 4 10 6 -3
10 5 10 18 0 21 4 24 21 20 11 -3 23 -11 25 -18z m-3736 -64 c0 -21 119 -213
141 -227 5 -3 9 -13 9 -22 -1 -20 -29 10 -103 112 -44 59 -52 65 -77 59 -45
-8 -67 48 -33 83 11 10 16 29 15 48 l-3 31 26 -30 c14 -16 25 -41 25 -54z
m1000 36 c0 -16 -2 -17 -16 -7 -8 8 -19 22 -25 32 -9 16 -7 17 16 6 14 -6 25
-20 25 -31z m6534 -39 c-3 -5 2 -15 12 -23 18 -12 17 -15 -6 -64 -30 -65 -48
-81 -83 -74 l-28 5 22 37 c38 62 59 109 59 132 0 18 2 19 15 9 8 -7 12 -17 9
-22z m-7264 2 c0 -5 -2 -10 -4 -10 -3 0 -8 5 -11 10 -3 6 -1 10 4 10 6 0 11
-4 11 -10z m778 -36 c34 -52 21 -52 -17 1 -18 25 -26 42 -19 40 7 -3 23 -22
36 -41z m3851 37 c2 0 -2 -8 -9 -16 -17 -21 -37 -19 -43 4 -4 16 0 19 22 16
14 -1 28 -3 30 -4z m2404 -41 c10 -12 9 -12 -4 -2 -9 6 -18 9 -21 6 -3 -3 -9
-1 -12 4 -9 15 22 8 37 -8z m1421 -23 c17 -12 16 -16 -12 -68 -88 -161 -148
-249 -172 -249 -24 0 -20 31 9 74 39 56 91 165 91 189 0 9 5 17 10 17 6 0 10
6 10 13 0 16 20 37 35 37 6 0 19 -6 29 -13z m-8399 -5 c-3 -3 0 -11 6 -19 17
-20 5 -16 -14 5 -15 16 -15 19 -2 19 8 0 13 -3 10 -5z m7019 -23 c-7 -12 23
-42 35 -35 4 3 16 -3 26 -14 10 -11 13 -20 8 -20 -6 0 -13 7 -17 15 -3 8 -11
12 -19 9 -15 -5 -54 32 -44 43 4 3 1 13 -6 22 -11 14 -10 14 5 2 10 -7 15 -17
12 -22z m-5059 -69 c25 -26 27 -32 15 -40 -8 -5 -18 -10 -21 -10 -10 0 -39 48
-39 65 0 23 13 18 45 -15z m5559 -13 c-3 -7 1 -4 9 6 8 10 18 14 21 9 8 -14
-44 -71 -60 -65 -8 3 -11 9 -8 14 3 5 -2 9 -10 9 -9 0 -16 5 -16 11 0 6 7 9
14 6 10 -4 13 -1 9 9 -4 10 0 12 11 8 9 -3 16 -1 16 6 0 6 5 8 10 5 6 -4 8
-12 4 -18z m-6118 -14 c15 -16 32 -40 40 -55 8 -15 22 -31 31 -36 16 -9 16
-12 0 -36 -10 -14 -22 -26 -27 -26 -13 0 -105 120 -105 139 0 19 14 41 27 41
5 0 20 -12 34 -27z m237 14 c3 -8 -1 -14 -8 -14 -7 0 -11 6 -8 14 3 7 6 13 8
13 2 0 5 -6 8 -13z m240 -12 c-3 -8 -12 -15 -21 -15 -8 0 -13 -3 -10 -6 4 -3
-12 -22 -35 -42 -23 -20 -49 -45 -57 -56 -15 -17 -17 -17 -43 18 -32 42 -24
48 13 10 l25 -27 10 26 c6 15 31 43 55 64 25 21 47 41 48 46 7 14 21 -4 15
-18z m877 -61 c-6 -41 -53 -120 -132 -223 -24 -32 -23 -14 2 24 11 17 20 42
20 56 0 16 17 49 40 80 22 30 40 59 40 66 0 7 5 24 12 38 16 36 26 13 18 -41z
m-2651 -45 c60 -78 84 -119 67 -119 -2 0 -36 42 -75 94 -63 83 -81 116 -67
116 3 0 37 -41 75 -91z m7576 51 c3 -5 2 -10 -4 -10 -5 0 -13 5 -16 10 -3 6
-2 10 4 10 5 0 13 -4 16 -10z m-135 -25 c13 -14 21 -25 18 -25 -2 0 -15 11
-28 25 -13 14 -21 25 -18 25 2 0 15 -11 28 -25z m90 5 c0 -5 -2 -10 -4 -10 -3
0 -8 5 -11 10 -3 6 -1 10 4 10 6 0 11 -4 11 -10z m30 -10 c0 -5 -4 -10 -10
-10 -5 0 -10 5 -10 10 0 6 5 10 10 10 6 0 10 -4 10 -10z m-7236 -50 c-12 -5
-9 -13 15 -44 35 -43 37 -52 17 -59 -9 -4 -30 19 -60 61 -39 57 -44 68 -29 73
9 3 30 -1 45 -10 21 -12 24 -17 12 -21z m7234 -30 c-2 -27 -5 -46 -7 -44 -9 8
-30 -32 -31 -57 0 -21 -7 -28 -39 -37 -53 -16 -68 -15 -69 6 -1 25 19 73 29
67 4 -3 16 7 26 22 10 15 26 37 35 47 10 11 20 28 23 37 4 11 12 16 21 12 10
-4 14 -18 12 -53z m254 -12 c-7 -7 -12 -8 -12 -2 0 14 12 26 19 19 2 -3 -1
-11 -7 -17z m-1816 -62 c10 -31 -50 -71 -107 -71 -60 0 -58 13 12 79 53 50 54
51 71 31 10 -11 20 -28 24 -39z m-3663 -16 c15 -7 27 -17 27 -22 0 -5 10 -6
21 -3 13 5 19 3 15 -3 -3 -5 11 -18 32 -27 35 -17 56 -32 127 -91 16 -13 35
-22 42 -19 7 2 13 0 13 -5 0 -6 7 -10 15 -10 14 0 54 -19 65 -30 3 -3 28 -17
57 -30 28 -13 49 -28 47 -32 -3 -4 4 -8 15 -8 12 0 21 -4 21 -8 0 -5 18 -15
39 -22 22 -7 71 -37 110 -66 39 -30 76 -54 82 -54 6 0 8 -7 5 -16 -3 -8 -2
-12 4 -9 6 3 10 -5 10 -18 0 -47 -39 -43 -150 18 -55 30 -103 55 -105 55 -2 0
-26 13 -54 29 -27 16 -96 54 -152 83 -132 68 -156 92 -151 146 4 40 2 42 -44
72 -26 16 -52 30 -57 30 -10 0 -167 90 -167 96 0 3 58 -21 133 -56z m-2826 -8
c18 -26 51 -72 74 -103 27 -38 40 -64 37 -80 -3 -21 -13 -11 -74 71 -75 100
-107 154 -98 163 11 11 29 -4 61 -51z m1204 6 c16 -30 3 -20 -27 20 -23 30
-24 33 -5 17 13 -11 27 -28 32 -37z m7382 27 c-3 -9 -8 -14 -10 -11 -3 3 -2 9
2 15 9 16 15 13 8 -4z m-9229 -88 c38 -56 50 -83 53 -122 l5 -50 -66 89 c-36
48 -66 96 -66 106 0 23 10 50 19 50 3 -1 28 -33 55 -73z m6526 39 c0 -14 -89
-51 -99 -41 -8 9 12 23 54 38 22 8 41 15 43 16 1 0 2 -5 2 -13z m-1250 -63 c0
-13 -20 -19 -20 -5 0 4 -3 18 -6 32 -5 24 -5 24 10 6 9 -11 16 -26 16 -33z
m-4210 -67 c0 -5 -10 4 -22 20 -33 44 -36 53 -6 19 15 -16 28 -34 28 -39z
m1150 60 c0 -21 -21 -31 -30 -15 -5 7 -6 17 -4 21 9 14 34 9 34 -6z m-780
-106 c3 -3 18 -21 33 -41 l27 -36 -21 -19 c-12 -11 -23 -14 -27 -8 -4 5 -27
36 -51 68 -27 36 -39 61 -33 65 7 4 8 12 2 21 -6 8 -10 26 -10 40 0 21 6 16
37 -30 20 -30 39 -57 43 -60z m1020 90 c0 -5 -4 -10 -10 -10 -5 0 -10 5 -10
10 0 6 5 10 10 10 6 0 10 -4 10 -10z m-67 -63 c-22 -27 -42 -44 -67 -58 -15
-9 -17 -8 -10 3 5 7 9 16 9 20 0 3 4 10 9 15 5 5 6 3 2 -4 -12 -21 1 -15 32
17 16 16 27 32 23 36 -3 4 0 4 7 0 11 -6 10 -12 -5 -29z m6411 -11 c18 7 56
-21 56 -40 0 -22 -81 -137 -93 -133 -6 2 -19 1 -28 -4 -14 -7 -16 -2 -14 31
l2 39 -31 -36 c-19 -20 -39 -34 -49 -32 -14 3 -10 14 23 66 21 34 52 69 69 78
22 11 29 20 24 33 -6 14 -4 15 9 4 8 -7 23 -9 32 -6z m-1709 -64 c-3 -3 -11 0
-18 7 -9 10 -8 11 6 5 10 -3 15 -9 12 -12z m1352 -22 c11 -17 9 -22 -23 -44
-22 -15 -31 -26 -22 -29 7 -2 -1 -4 -19 -3 -17 0 -29 4 -27 8 3 5 -1 8 -8 8
-12 1 70 80 82 80 3 0 11 -9 17 -20z m-8863 -125 c58 -88 66 -105 71 -165 3
-32 0 -40 -16 -45 -23 -8 -18 -14 -125 142 -74 108 -85 141 -43 130 22 -6 24
1 4 27 -8 10 -12 23 -9 27 10 17 67 -38 118 -116z m8458 78 c15 -15 28 -32 28
-39 0 -7 -20 -25 -45 -42 -39 -25 -51 -29 -97 -24 -29 2 -57 8 -61 12 -7 6
127 119 142 120 3 0 18 -12 33 -27z m-2644 -49 c32 -21 29 -45 -5 -39 -16 2
-53 7 -84 10 -44 5 -58 10 -62 25 -3 10 -2 22 1 25 11 11 125 -6 150 -21z
m-4835 -74 c-7 -7 -62 63 -63 79 0 7 15 -6 34 -30 19 -24 32 -46 29 -49z m375
55 c5 0 23 -13 40 -30 17 -16 42 -41 56 -55 26 -25 36 -70 14 -70 -7 0 -6 -6
4 -17 8 -10 20 -31 27 -48 13 -30 137 -205 154 -216 5 -4 7 -15 5 -25 -2 -12
-54 51 -161 195 -106 144 -154 217 -148 225 6 7 4 18 -5 30 -8 11 -14 25 -14
30 0 6 5 4 10 -4 5 -8 13 -15 18 -15z m958 -65 c36 -50 69 -89 72 -86 6 7 82
-93 82 -108 0 -6 -20 12 -44 39 -43 49 -44 50 -64 32 -20 -18 -21 -17 -71 49
-45 59 -51 73 -51 115 0 27 2 49 5 49 2 0 34 -41 71 -90z m-100 51 c0 -10 -6
-17 -12 -14 -7 2 -15 0 -19 -6 -3 -6 -1 -11 6 -11 6 0 -5 -13 -26 -30 -20 -16
-41 -27 -46 -24 -13 7 -11 34 2 34 5 0 7 -6 3 -12 -4 -8 -3 -10 2 -5 5 5 9 14
9 20 0 7 9 11 18 11 10 -1 16 0 13 3 -2 3 7 16 22 29 15 13 27 24 27 24 1 0 1
-8 1 -19z m6924 15 c0 -2 -26 -22 -58 -44 -32 -23 -64 -48 -72 -56 -7 -9 -21
-16 -32 -16 -10 0 -42 -18 -71 -39 -82 -61 -152 -101 -178 -101 -24 0 -24 0 6
28 43 40 165 122 182 122 8 0 11 5 7 13 -6 10 -4 10 7 0 21 -21 37 -16 97 30
73 56 112 78 112 63z m-1486 -52 c3 -8 2 -12 -4 -9 -6 3 -10 10 -10 16 0 14 7
11 14 -7z m-5842 -79 c44 -59 69 -84 84 -85 15 0 37 -22 74 -77 29 -43 56 -81
60 -86 3 -4 20 4 36 18 16 14 34 25 40 25 7 0 14 7 18 15 3 8 10 15 16 15 5 0
10 -7 10 -15 0 -8 -4 -15 -10 -15 -5 0 -10 -6 -10 -12 -1 -7 -21 -28 -45 -46
-67 -49 -63 -76 26 -192 38 -51 68 -94 66 -97 -8 -7 -297 383 -297 401 0 9
-24 49 -53 89 -70 95 -101 147 -88 147 6 0 39 -38 73 -85z m6586 53 c6 -6 12
-18 12 -28 0 -9 3 -20 7 -24 12 -12 10 -45 -4 -50 -8 -3 -11 -1 -8 4 3 6 1 10
-4 10 -6 0 -11 -5 -11 -11 0 -18 -17 0 -59 61 l-42 61 48 -7 c26 -3 54 -11 61
-16z m-3081 -88 c17 -20 43 -27 43 -12 0 4 17 8 38 8 35 -1 38 -3 34 -25 -4
-21 -9 -23 -41 -17 -20 3 -46 6 -58 6 -23 0 -63 32 -63 50 0 17 29 11 47 -10z
m-4864 -89 c18 -14 23 -51 7 -51 -5 0 -23 20 -40 45 -17 25 -28 45 -23 45 4 0
2 5 -5 12 -7 7 -12 21 -12 33 0 15 8 8 29 -25 15 -25 35 -51 44 -59z m5482 68
c-4 -5 1 -12 10 -16 16 -6 16 -7 0 -16 -25 -14 -53 16 -36 37 14 16 36 12 26
-5z m-295 -40 c0 -6 -4 -7 -10 -4 -5 3 -10 11 -10 16 0 6 5 7 10 4 6 -3 10
-11 10 -16z m6647 -41 c-14 -24 -125 -191 -246 -373 -166 -248 -238 -348 -293
-402 -40 -40 -78 -73 -84 -73 -13 0 -8 30 10 65 30 57 526 723 526 706 0 -8
23 18 51 58 54 78 78 90 36 19z m-11436 -3 c13 0 60 -65 62 -84 0 -11 4 -18 8
-16 3 3 15 -6 27 -18 23 -25 30 -107 9 -107 -13 1 -84 94 -116 155 -24 45 -29
91 -8 78 6 -4 15 -8 18 -8z m1340 -8 c-10 -9 -11 -8 -5 6 3 10 9 15 12 12 3
-3 0 -11 -7 -18z m6979 13 c0 -5 -10 -15 -22 -21 -23 -12 -23 -12 -4 10 21 23
26 26 26 11z m-1460 -76 c0 -27 -63 -33 -127 -13 -18 6 -33 14 -33 17 1 14 74
62 87 58 7 -3 13 0 13 7 1 15 60 -53 60 -69z m-8308 4 c64 -98 70 -108 64
-108 -7 0 -106 141 -106 152 0 16 7 8 42 -44z m2851 -29 c31 -43 35 -53 24
-57 -13 -5 -67 69 -67 91 0 23 2 21 43 -34z m2733 26 c11 -7 31 -16 45 -19 13
-2 -12 -3 -56 0 -48 3 -86 11 -94 19 -11 11 -6 13 35 13 27 1 58 -5 70 -13z
m-5066 -177 c0 -8 13 -29 28 -48 37 -46 76 -110 70 -116 -4 -4 -31 35 -158
226 -26 39 -50 88 -50 102 0 7 25 -24 55 -69 30 -46 55 -88 55 -95z m5251 151
c30 -6 60 -11 67 -12 7 0 9 -4 5 -8 -10 -10 -144 9 -157 22 -13 12 19 12 85
-2z m1839 -15 c15 -39 14 -41 -38 -58 -43 -15 -119 -19 -107 -7 3 2 -4 11 -15
18 -14 10 -34 13 -63 8 -40 -6 -41 -5 -22 10 11 9 29 15 40 14 11 -1 27 -1 35
0 13 1 13 3 0 12 -13 9 -13 10 1 6 9 -3 36 1 60 8 70 22 98 19 109 -11z m3642
-24 c8 -12 -29 -74 -158 -266 -93 -137 -176 -260 -185 -272 -20 -27 -79 -48
-79 -27 0 22 23 59 58 93 17 17 32 38 32 47 0 12 -7 8 -26 -12 -25 -27 -25
-26 3 14 15 22 31 39 35 37 4 -3 12 6 19 18 23 43 162 253 213 321 50 66 70
77 88 47z m-2115 -31 l27 -41 -32 -29 c-23 -20 -43 -29 -68 -29 -23 0 -33 -4
-28 -11 4 -8 0 -8 -15 0 -11 7 -36 12 -54 13 l-34 1 38 34 c51 46 122 102 131
102 4 1 20 -18 35 -40z m246 -46 c-17 -28 -17 -28 3 -10 19 16 34 14 34 -3 0
-14 -105 -78 -137 -85 -55 -11 -44 10 34 68 43 31 78 57 80 57 2 0 -4 -12 -14
-27z m345 -11 c-11 -13 -10 -15 5 -9 32 12 17 -12 -24 -40 -108 -72 -136 -86
-125 -58 7 18 2 19 -27 4 -32 -17 -21 -8 77 65 82 60 126 78 94 38z m-4641 -8
c-3 -3 -12 -4 -19 -1 -8 3 -5 6 6 6 11 1 17 -2 13 -5z m322 -26 c18 -29 8 -33
-51 -20 -29 6 -88 14 -130 17 -108 9 -114 28 -7 21 46 -3 96 -8 112 -12 20 -5
27 -3 27 9 0 21 33 11 49 -15z m-4473 -28 c11 0 95 -125 102 -152 3 -14 0 -17
-12 -12 -12 5 -15 2 -10 -10 4 -10 1 -16 -7 -16 -16 1 -103 124 -105 149 -1 9
-7 29 -13 44 -17 44 -12 54 12 25 13 -16 27 -28 33 -28z m6918 24 c11 -27 7
-30 -51 -48 -52 -15 -62 -16 -92 -3 -39 17 -34 22 48 48 70 22 87 23 95 3z
m740 8 c5 -9 -116 -92 -124 -85 -2 2 2 8 10 13 20 12 70 52 84 67 13 14 23 16
30 5z m-1084 -107 c7 -9 11 -17 8 -20 -8 -8 -187 -53 -192 -48 -2 3 -48 -7
-100 -22 -53 -15 -103 -25 -111 -21 -26 10 -5 33 36 40 21 3 39 10 39 14 0 15
64 29 86 20 14 -7 46 -1 109 20 108 36 109 36 125 17z m-6130 -85 c3 -3 27
-35 53 -72 45 -64 56 -88 40 -88 -11 0 -74 92 -112 163 -36 66 -41 89 -9 37
12 -19 25 -37 28 -40z m1591 -2 c57 -33 160 -96 229 -138 216 -133 389 -238
560 -339 150 -89 439 -267 449 -277 7 -6 -22 -56 -36 -61 -6 -3 -103 49 -215
115 -112 66 -243 142 -293 169 -77 42 -752 435 -795 462 -10 7 -15 28 -15 71
0 33 2 60 6 60 3 0 52 -28 110 -62z m3994 12 c4 -6 -7 -10 -27 -9 -27 0 -30 2
-13 9 27 12 33 12 40 0z m1802 -36 c4 -12 -5 -26 -28 -46 -42 -35 -74 -55 -65
-39 6 10 -20 16 -46 12 -5 0 -8 4 -8 9 0 6 6 10 14 10 8 0 17 7 20 16 3 8 10
13 14 10 5 -3 24 6 42 19 40 29 48 31 57 9z m-6947 -59 c0 -5 -11 3 -25 19
-14 16 -25 34 -25 40 1 13 50 -45 50 -59z m4290 20 c0 -12 -19 -12 -23 0 -4 9
-1 12 9 8 7 -3 14 -7 14 -8z m3245 5 c-3 -5 -16 -15 -28 -21 -19 -9 -19 -8 3
10 28 23 34 26 25 11z m-3272 -56 c-3 -9 2 -11 19 -7 21 5 22 4 7 -11 -9 -10
-22 -14 -32 -10 -21 7 -23 41 -3 41 8 0 12 -6 9 -13z m345 -10 c14 -4 22 -13
20 -23 -3 -12 -13 -15 -48 -13 -41 4 -59 14 -60 35 0 9 56 9 88 1z m-4554 -40
c5 -14 4 -15 -9 -4 -17 14 -19 20 -6 20 5 0 12 -7 15 -16z m3487 -13 c-8 -5
-21 -6 -30 -3 -13 5 -11 8 7 10 14 2 20 8 16 15 -4 7 -2 7 7 -1 12 -11 12 -14
0 -21z m2699 14 c-15 -18 -93 -30 -116 -17 -13 7 -8 10 24 10 23 0 50 5 59 11
28 16 48 14 33 -4z m-7960 -101 c28 -42 50 -78 47 -80 -3 -3 -18 17 -35 43
-17 26 -40 63 -52 81 -12 17 -20 32 -17 32 3 0 29 -34 57 -76z m718 26 c-2 -7
-10 1 -17 16 -12 27 -11 28 4 12 10 -9 16 -21 13 -28z m6270 24 c-2 -10 -30
-25 -78 -40 -41 -12 -87 -30 -101 -38 -15 -9 -63 -24 -107 -34 -74 -18 -83
-18 -103 -4 -19 13 -29 13 -67 3 -25 -6 -47 -9 -50 -7 -3 3 1 8 9 10 33 11
173 50 279 77 63 16 129 34 145 38 50 15 77 13 73 -5z m2072 3 c0 -6 -131
-102 -133 -98 -1 2 -13 -1 -27 -8 -19 -10 -16 -5 10 17 19 17 54 41 78 53 24
13 45 26 48 31 5 8 24 12 24 5z m-1184 -26 c-8 -13 -129 -44 -152 -39 -12 3 5
12 46 26 69 22 115 28 106 13z m-7115 -59 c28 -54 69 -113 105 -149 20 -19 32
-39 28 -46 -4 -7 -4 -9 1 -5 4 4 35 -34 67 -85 61 -95 95 -130 113 -119 5 3 4
-1 -3 -10 -9 -11 -10 -18 -2 -23 6 -3 8 -11 5 -16 -4 -5 -1 -9 6 -9 7 0 9 -3
6 -6 -3 -4 -2 -15 4 -26 9 -16 8 -19 -5 -16 -8 1 -85 104 -171 228 -158 227
-177 256 -190 299 -11 35 16 22 36 -17z m7726 -19 c-9 -9 -20 -13 -24 -9 -4 4
-1 11 7 16 25 16 35 11 17 -7z m-2335 -9 c38 -3 73 -12 79 -20 9 -11 7 -14
-14 -14 -61 0 -177 23 -189 38 -11 13 -9 14 22 9 19 -3 65 -9 102 -13z m-198
-19 c3 -8 1 -15 -4 -15 -6 0 -10 7 -10 15 0 8 2 15 4 15 2 0 6 -7 10 -15z
m504 0 c-2 -3 -27 -7 -54 -10 l-49 -4 50 13 c47 12 65 12 53 1z m-4274 -11 c9
-3 16 -11 16 -16 0 -6 -6 -6 -14 1 -11 9 -15 9 -19 -1 -4 -8 -6 -7 -6 5 -1 19
0 20 23 11z m-30 -40 c3 -8 2 -12 -4 -9 -6 3 -10 0 -11 -7 0 -10 -2 -10 -6 0
-8 21 -24 13 -18 -11 5 -17 -1 -26 -26 -41 -22 -13 -34 -16 -37 -8 -6 18 -1
25 41 60 44 36 52 39 61 16z m4185 10 c18 -4 31 -13 31 -21 0 -12 -9 -14 -47
-8 -27 3 -55 13 -63 21 -12 12 -10 14 17 14 17 0 45 -3 62 -6z m-1123 -50 c30
-8 35 -54 5 -54 -40 0 -80 13 -86 28 -7 19 23 45 43 37 8 -3 25 -8 38 -11z
m731 -16 c-3 -7 -5 -2 -5 12 0 14 2 19 5 13 2 -7 2 -19 0 -25z m-4283 -72 c25
-38 44 -71 42 -73 -3 -3 -18 3 -34 13 -39 22 -107 135 -89 146 15 9 22 1 81
-86z m380 32 c6 -4 1 -6 -12 -5 -12 0 -22 2 -22 3 0 1 3 10 7 20 5 14 8 15 11
3 3 -7 10 -17 16 -21z m2611 -52 c19 -8 55 -18 80 -22 46 -6 96 -36 83 -49 -4
-4 -52 -2 -107 5 -98 12 -100 13 -110 43 -6 16 -11 32 -11 33 0 9 33 3 65 -10z
m-3355 -19 c0 -7 -9 -13 -20 -13 -23 0 -24 2 -7 20 13 15 27 11 27 -7z m5440
-2 c0 -34 -40 -44 -77 -19 l-27 17 34 13 c55 20 70 17 70 -11z m-555 -29 c0
-15 -4 -21 -9 -16 -5 5 -6 16 -3 24 9 22 12 20 12 -8z m-4960 -14 c-3 -3 -11
0 -18 7 -9 10 -8 11 6 5 10 -3 15 -9 12 -12z m6875 -2 c-8 -5 -24 -10 -35 -10
-17 0 -17 2 -5 10 8 5 24 10 35 10 17 0 17 -2 5 -10z m2446 -39 c-12 -19 -271
-200 -308 -215 -29 -13 -400 -264 -503 -341 -29 -21 -130 -40 -118 -22 2 4 15
7 29 7 13 0 24 6 24 13 0 7 15 27 33 43 49 47 395 274 415 274 10 0 43 17 73
38 221 155 343 232 352 223 5 -5 6 -14 3 -20z m-3650 4 c-11 -8 -25 -15 -30
-15 -6 -1 -30 -5 -54 -9 -60 -12 -40 4 28 22 71 19 79 20 56 2z m1132 -22 c-4
-21 -137 -58 -174 -49 -36 10 -27 15 68 41 102 29 110 29 106 8z m-6908 3 c0
-2 -7 -7 -16 -10 -8 -3 -12 -2 -9 4 6 10 25 14 25 6z m4690 -36 c13 -9 13 -10
0 -10 -8 0 -22 5 -30 10 -13 9 -13 10 0 10 8 0 22 -5 30 -10z m88 -10 c6 0 12
-4 12 -9 0 -6 -12 -6 -31 -1 -38 11 -55 26 -19 17 14 -4 31 -7 38 -7z m69 -21
c6 -6 35 -18 65 -25 44 -12 46 -13 13 -9 -22 3 -49 5 -61 5 -12 0 -31 9 -44
20 -21 19 -22 20 -4 20 11 0 25 -5 31 -11z m1433 -20 c0 -7 13 -8 39 -4 36 6
39 4 45 -20 4 -14 4 -30 1 -34 -8 -15 -104 -33 -133 -27 -20 5 -23 4 -12 -4
11 -7 11 -10 2 -10 -7 0 -10 -5 -6 -11 4 -7 1 -10 -7 -7 -8 3 -13 11 -11 17 1
6 -3 11 -9 11 -5 0 -8 4 -5 9 8 12 -18 32 -35 29 -8 -2 -14 4 -14 11 0 10 23
21 65 32 81 21 80 21 80 8z m1890 -27 c0 -8 -48 -44 -237 -178 -79 -55 -113
-85 -113 -99 -1 -29 -173 -149 -201 -140 -11 4 -18 12 -16 18 2 7 -4 17 -14
22 -23 13 -16 22 55 73 45 32 69 42 98 42 37 0 103 42 367 231 58 42 61 43 61
31z m3430 -24 c0 -6 -43 -73 -96 -148 -94 -137 -96 -139 -150 -156 -86 -27
-86 -27 48 151 86 115 198 202 198 153z m-5423 -24 c-3 -3 -12 -4 -19 -1 -8 3
-5 6 6 6 11 1 17 -2 13 -5z m-2387 -24 c25 -5 88 -16 140 -25 52 -8 115 -20
140 -24 42 -8 43 -9 10 -9 -19 -1 -71 5 -114 12 -44 7 -88 11 -97 9 -21 -6
-214 33 -237 47 -18 11 69 5 158 -10z m453 -12 c56 1 66 4 60 19 -3 7 -1 13 5
13 5 0 12 -7 16 -15 3 -8 16 -15 30 -15 38 0 160 -30 167 -41 8 -13 62 -26
169 -39 47 -6 92 -17 100 -24 15 -13 239 -50 248 -41 3 2 0 10 -6 17 -7 9 -5
17 6 28 14 13 15 13 10 -1 -4 -11 0 -15 15 -15 19 1 22 -4 19 -34 -2 -19 -5
-36 -6 -38 -6 -5 -222 29 -241 38 -11 6 -53 15 -93 20 -41 6 -104 17 -140 25
-125 27 -253 46 -274 40 -25 -8 -186 14 -194 26 -3 5 -2 9 3 8 4 -1 19 -1 33
1 23 1 23 2 5 10 -11 5 -32 9 -47 9 -30 1 -78 20 -78 31 0 4 35 0 78 -8 42 -8
94 -15 115 -14z m2805 15 c4 -14 -25 -17 -54 -6 -16 6 -16 7 2 14 25 10 46 7
52 -8z m-1228 -37 c0 -7 -112 -38 -117 -32 -3 2 17 11 44 19 51 16 73 20 73
13z m884 -12 c26 -9 46 -18 44 -20 -6 -5 -93 17 -102 27 -14 13 3 11 58 -7z
m-491 -126 c40 -12 67 -26 67 -34 0 -8 -3 -14 -6 -14 -6 0 -253 -64 -384 -100
-215 -58 -310 -79 -355 -78 -27 0 -62 -3 -77 -7 -34 -9 -78 16 -78 45 0 17 5
19 45 13 31 -4 72 2 142 20 54 14 132 31 173 37 99 15 167 35 209 61 24 14 30
23 22 28 -8 6 -2 12 18 21 17 7 31 16 31 21 0 24 94 18 193 -13z m3433 -217
c-3 -4 -40 -32 -83 -61 -94 -64 -86 -51 12 19 73 53 79 56 71 42z m-1109 -108
c-11 -10 -38 6 -31 19 5 8 2 9 -10 5 -14 -6 -15 -3 -6 14 11 20 12 20 32 -6
11 -14 18 -29 15 -32z m-1190 -30 c-14 -13 -668 -183 -706 -183 -38 0 -72 11
-65 21 3 5 13 9 23 9 11 0 29 9 42 21 l24 20 -35 -6 c-50 -10 -101 -21 -132
-30 -16 -4 -28 -3 -28 2 0 15 216 57 300 59 41 1 96 6 122 11 26 6 45 6 42 2
-3 -5 5 -5 18 0 13 6 58 18 101 27 42 9 77 18 77 21 0 3 -12 2 -27 -1 -23 -5
-25 -4 -10 5 10 6 31 7 49 4 20 -5 28 -4 24 3 -3 6 2 12 11 14 33 6 176 7 170
1z m1462 -411 c-62 -48 -524 -355 -540 -359 -111 -29 328 299 472 352 78 29
100 31 68 7z m-2479 -64 c-20 -17 -21 -20 -5 -14 11 4 40 11 65 16 104 20 110
20 110 5 0 -18 -39 -29 -80 -23 -17 3 -30 1 -30 -3 0 -3 -9 -9 -20 -12 -11 -3
-18 -1 -14 4 3 5 0 9 -5 9 -6 0 -11 -4 -11 -9 0 -12 -59 -11 -66 0 -3 5 -18 6
-34 2 -16 -3 -37 -2 -47 2 -13 5 4 13 57 25 101 24 110 24 80 -2z m-5907 -97
c269 -185 367 -255 367 -263 0 -11 12 -19 -230 145 -246 168 -270 185 -270
198 0 12 -7 16 133 -80z m6877 -31 c-8 -5 -26 -9 -40 -9 l-25 1 25 8 c14 4 32
8 40 9 13 1 13 0 0 -9z m-391 -79 c10 -6 -4 -12 -45 -20 -32 -7 -87 -21 -122
-31 -66 -21 -107 -26 -98 -11 3 5 -16 7 -42 5 -61 -4 -44 1 113 35 144 32 174
35 194 22z m-2507 -242 c604 -116 572 -109 561 -120 -11 -11 -966 162 -1060
192 -32 10 -54 29 -34 29 5 0 245 -45 533 -101z m1528 16 c0 -20 -6 -25 -37
-30 -21 -4 -51 -11 -67 -16 -40 -13 -95 -11 -131 5 -30 13 -29 13 50 30 44 10
94 22 110 26 57 16 75 12 75 -15z m1008 -109 c-10 -7 -43 -18 -75 -25 -32 -7
-105 -23 -163 -37 -58 -13 -202 -46 -320 -73 -118 -27 -280 -66 -360 -86 -80
-20 -170 -38 -200 -40 -30 -1 -67 -6 -82 -10 -27 -7 -118 21 -118 37 0 14 17
15 85 3 74 -12 71 -13 295 42 l75 18 -50 3 c-27 2 -54 7 -60 13 -6 6 -6 9 0 9
6 0 75 14 155 31 80 17 165 30 188 29 28 0 41 3 37 10 -3 5 -2 10 4 10 5 0 12
-4 16 -9 3 -6 17 -6 33 -1 82 25 215 50 272 50 36 0 101 8 145 19 44 10 94 19
110 20 27 0 28 -1 13 -13z m-6748 -185 c107 -76 196 -135 198 -130 3 8 32 -9
152 -92 139 -96 475 -339 520 -377 25 -20 59 -47 75 -59 l30 -22 -29 -1 c-21
0 -41 12 -75 48 -26 26 -162 128 -302 226 -140 99 -279 198 -309 220 -30 22
-63 40 -75 41 -18 1 -256 159 -357 238 -35 26 -49 48 -30 47 4 -1 95 -63 202
-139z m9090 109 c-8 -5 -24 -9 -35 -9 -16 1 -16 2 5 9 35 11 48 11 30 0z
m-100 -33 c-25 -13 -63 -34 -85 -48 -67 -43 -158 -95 -202 -118 -69 -35 -81
-24 -17 15 141 87 273 163 290 167 49 12 55 5 14 -16z m685 -37 c-3 -5 -12
-10 -18 -10 -7 0 -6 4 3 10 19 12 23 12 15 0z m-3228 -546 c-3 -3 -12 -4 -19
-1 -8 3 -5 6 6 6 11 1 17 -2 13 -5z m-94 -21 c-7 -2 -19 -2 -25 0 -7 3 -2 5
12 5 14 0 19 -2 13 -5z m-4047 -145 c-18 -26 -22 -17 -5 14 6 11 13 17 16 15
3 -3 -2 -16 -11 -29z"/>
<path d="M10026 13997 c3 -10 9 -15 12 -12 3 3 0 11 -7 18 -10 9 -11 8 -5 -6z"/>
<path d="M9930 13910 c0 -5 5 -10 10 -10 6 0 10 5 10 10 0 6 -4 10 -10 10 -5
0 -10 -4 -10 -10z"/>
<path d="M9920 13840 c0 -13 18 -22 24 -11 3 5 -1 11 -9 15 -8 3 -15 1 -15 -4z"/>
<path d="M9810 13780 c0 -5 5 -10 10 -10 6 0 10 5 10 10 0 6 -4 10 -10 10 -5
0 -10 -4 -10 -10z"/>
<path d="M9860 13745 c11 -13 10 -20 0 -41 -8 -13 -19 -23 -26 -20 -8 3 -11
-1 -7 -10 3 -7 7 -14 10 -14 7 0 33 28 33 36 0 4 7 16 17 26 15 17 15 18 0 18
-10 0 -17 5 -17 10 0 6 -5 10 -11 10 -8 0 -7 -5 1 -15z"/>
<path d="M9836 13727 c3 -10 9 -15 12 -12 3 3 0 11 -7 18 -10 9 -11 8 -5 -6z"/>
<path d="M9770 13695 c0 -8 5 -15 10 -15 6 0 10 7 10 15 0 8 -4 15 -10 15 -5
0 -10 -7 -10 -15z"/>
<path d="M1985 13799 c-4 -6 -5 -12 -2 -15 2 -3 7 2 10 11 7 17 1 20 -8 4z"/>
<path d="M1830 12480 c0 -5 5 -10 11 -10 5 0 7 5 4 10 -3 6 -8 10 -11 10 -2 0
-4 -4 -4 -10z"/>
<path d="M10421 11336 c-7 -8 -8 -17 -3 -20 6 -3 15 1 21 8 7 8 8 17 3 20 -6
3 -15 -1 -21 -8z"/>
<path d="M6225 12099 c-57 -21 -48 -24 25 -8 27 6 48 15 44 20 -6 11 -6 11
-69 -12z"/>
<path d="M11780 11426 c0 -2 8 -10 18 -17 15 -13 16 -12 3 4 -13 16 -21 21
-21 13z"/>
<path d="M5269 9953 l-24 -28 30 25 c17 14 32 26 34 28 2 1 0 2 -6 2 -5 0 -20
-12 -34 -27z"/>
<path d="M5215 9910 c-3 -6 1 -7 9 -4 18 7 21 14 7 14 -6 0 -13 -4 -16 -10z"/>
<path d="M4425 9570 c3 -5 8 -10 11 -10 2 0 4 5 4 10 0 6 -5 10 -11 10 -5 0
-7 -4 -4 -10z"/>
<path d="M7171 8494 c0 -11 3 -14 6 -6 3 7 2 16 -1 19 -3 4 -6 -2 -5 -13z"/>
<path d="M6726 8275 c-10 -7 -16 -17 -15 -22 2 -4 15 2 28 15 26 24 17 30 -13
7z"/>
<path d="M7296 8279 c3 -5 14 -7 25 -4 14 5 17 3 13 -9 -3 -9 -1 -16 6 -16 25
0 4 35 -23 37 -16 1 -25 -2 -21 -8z"/>
<path d="M7318 8223 c7 -3 16 -2 19 1 4 3 -2 6 -13 5 -11 0 -14 -3 -6 -6z"/>
<path d="M7976 8115 c-14 -11 -16 -15 -5 -15 12 0 12 -2 0 -9 -11 -7 -7 -13
17 -25 36 -19 51 -5 24 22 -10 10 -16 24 -14 30 5 15 1 15 -22 -3z"/>
<path d="M6535 8090 c-3 -6 1 -7 9 -4 18 7 21 14 7 14 -6 0 -13 -4 -16 -10z"/>
<path d="M6588 8073 c6 -2 12 -9 12 -15 0 -6 -8 -7 -17 -3 -11 4 -7 -5 11 -24
34 -36 38 -37 29 -14 -4 9 -2 14 3 10 5 -3 10 3 10 13 0 11 -2 17 -4 15 -3 -2
-11 2 -19 10 -8 8 -20 15 -26 14 -9 0 -8 -2 1 -6z m32 -33 c0 -5 -4 -10 -10
-10 -5 0 -10 5 -10 10 0 6 5 10 10 10 6 0 10 -4 10 -10z"/>
<path d="M6375 7980 c3 -5 8 -10 11 -10 2 0 4 5 4 10 0 6 -5 10 -11 10 -5 0
-7 -4 -4 -10z"/>
<path d="M6310 7898 c0 -15 18 -17 36 -3 18 14 17 14 -8 13 -16 -1 -28 -6 -28
-10z"/>
<path d="M8185 7849 c-4 -6 -5 -13 -2 -16 7 -7 27 6 27 18 0 12 -17 12 -25 -2z"/>
<path d="M8080 7825 c0 -8 2 -15 4 -15 2 0 6 7 10 15 3 8 1 15 -4 15 -6 0 -10
-7 -10 -15z"/>
<path d="M6220 7796 c0 -8 6 -17 13 -19 7 -4 6 -6 -4 -6 -19 -1 -48 -31 -30
-31 6 0 11 5 11 11 0 5 4 7 10 4 5 -3 18 -8 27 -10 10 -2 28 -7 41 -11 18 -5
22 -2 22 15 0 18 -27 39 -60 45 -3 1 -11 5 -17 9 -8 5 -13 3 -13 -7z"/>
<path d="M8100 7790 c0 -5 5 -10 10 -10 6 0 10 5 10 10 0 6 -4 10 -10 10 -5 0
-10 -4 -10 -10z"/>
<path d="M8387 7513 c-13 -12 -7 -50 7 -50 8 0 12 6 9 14 -3 7 0 13 6 13 6 0
8 7 5 15 -7 16 -17 19 -27 8z"/>
<path d="M8480 7505 c0 -19 9 -19 34 0 19 14 19 15 -7 15 -17 0 -27 -5 -27
-15z"/>
<path d="M6142 7423 c4 -45 20 -53 37 -17 10 22 9 28 -6 40 -28 21 -34 17 -31
-23z"/>
<path d="M8230 7442 c0 -5 7 -9 15 -9 8 0 12 4 9 9 -3 4 -9 8 -15 8 -5 0 -9
-4 -9 -8z"/>
<path d="M8417 7427 c-3 -8 -1 -20 4 -28 6 -10 9 -7 9 14 0 29 -5 35 -13 14z"/>
<path d="M6215 7409 c-4 -6 -5 -12 -2 -15 2 -3 7 2 10 11 7 17 1 20 -8 4z"/>
<path d="M6024 7355 c-3 -8 1 -24 9 -35 l15 -21 26 24 c14 13 26 29 26 36 0
17 -70 14 -76 -4z"/>
<path d="M8485 7178 c-11 -50 -10 -141 3 -145 6 -3 12 3 12 14 0 15 2 16 10 3
7 -10 10 11 10 68 0 66 -3 82 -15 82 -8 0 -17 -10 -20 -22z"/>
<path d="M8312 7068 c3 -7 13 -13 24 -14 16 -1 16 0 1 3 -9 3 -15 9 -12 14 4
5 1 9 -5 9 -7 0 -10 -6 -8 -12z"/>
<path d="M6030 6973 c0 -4 5 -15 10 -23 8 -13 10 -13 10 2 0 9 -4 20 -10 23
-5 3 -10 3 -10 -2z"/>
<path d="M8290 6899 c-25 -7 -23 -9 27 -13 19 -2 28 -16 9 -16 -10 0 -24 -7
-32 -15 -13 -13 -11 -14 18 -9 18 4 39 12 47 19 11 11 9 16 -15 28 -18 8 -38
11 -54 6z"/>
<path d="M8278 6873 c7 -3 16 -2 19 1 4 3 -2 6 -13 5 -11 0 -14 -3 -6 -6z"/>
<path d="M8385 6850 c-3 -5 -1 -10 4 -10 6 0 11 5 11 10 0 6 -2 10 -4 10 -3 0
-8 -4 -11 -10z"/>
<path d="M8412 6836 c0 -11 2 -16 6 -10 4 6 14 13 22 16 11 3 9 6 -6 10 -15 4
-20 0 -22 -16z"/>
<path d="M8355 6830 c-3 -5 -1 -10 4 -10 6 0 11 5 11 10 0 6 -2 10 -4 10 -3 0
-8 -4 -11 -10z"/>
<path d="M8161 6614 c0 -11 3 -14 6 -6 3 7 2 16 -1 19 -3 4 -6 -2 -5 -13z"/>
<path d="M8163 6445 c-7 -7 -9 -16 -5 -21 4 -4 2 -4 -5 0 -7 4 -24 -5 -40 -21
-32 -32 -37 -47 -20 -61 9 -7 27 5 64 42 45 46 49 53 35 63 -13 7 -21 7 -29
-2z"/>
<path d="M7851 6366 c-9 -11 -8 -17 4 -29 14 -15 14 -17 -5 -27 -11 -6 -20
-15 -20 -21 0 -6 5 -7 12 -3 8 5 9 2 5 -9 -4 -11 2 -22 16 -32 13 -9 16 -15 8
-15 -8 0 -12 -3 -9 -6 7 -6 46 13 65 31 15 15 -4 75 -24 75 -7 0 -10 6 -7 14
4 11 0 13 -18 9 -21 -6 -22 -5 -9 10 7 9 9 17 3 17 -5 0 -15 -6 -21 -14z m44
-66 c3 -5 1 -10 -4 -10 -6 0 -11 5 -11 10 0 6 2 10 4 10 3 0 8 -4 11 -10z"/>
<path d="M8006 6363 c-6 -14 -5 -15 5 -6 7 7 10 15 7 18 -3 3 -9 -2 -12 -12z"/>
<path d="M8060 6345 c0 -5 5 -17 10 -25 5 -8 10 -10 10 -5 0 6 -5 17 -10 25
-5 8 -10 11 -10 5z"/>
<path d="M7820 6315 c-20 -24 -6 -28 15 -5 10 11 13 20 8 20 -6 0 -16 -7 -23
-15z"/>
<path d="M6463 6295 c0 -8 4 -12 9 -9 5 3 6 10 3 15 -9 13 -12 11 -12 -6z"/>
<path d="M8035 6300 c3 -5 8 -10 11 -10 2 0 4 5 4 10 0 6 -5 10 -11 10 -5 0
-7 -4 -4 -10z"/>
<path d="M7785 6230 c3 -5 1 -10 -5 -10 -8 0 -8 -6 0 -20 6 -11 15 -18 21 -15
5 4 6 11 3 17 -5 8 -1 9 11 4 18 -7 18 -6 0 14 -18 20 -41 28 -30 10z"/>
<path d="M8030 6220 c0 -5 5 -10 11 -10 5 0 7 5 4 10 -3 6 -8 10 -11 10 -2 0
-4 -4 -4 -10z"/>
<path d="M7400 6190 c-24 -15 -7 -19 20 -5 15 8 19 14 10 14 -8 1 -22 -3 -30
-9z"/>
<path d="M6855 6090 c3 -5 8 -10 11 -10 2 0 4 5 4 10 0 6 -5 10 -11 10 -5 0
-7 -4 -4 -10z"/>
<path d="M7547 6073 c-4 -3 -7 -11 -7 -16 0 -6 3 -7 7 -4 3 4 12 2 20 -4 8 -7
13 -8 13 -1 0 14 -25 33 -33 25z"/>
<path d="M4088 7553 c7 -3 16 -2 19 1 4 3 -2 6 -13 5 -11 0 -14 -3 -6 -6z"/>
<path d="M2969 3975 c14 -27 51 -69 56 -64 2 3 -12 22 -31 44 -19 22 -30 31
-25 20z"/>
<path d="M10624 3526 c-36 -20 -54 -38 -48 -48 6 -10 48 13 77 43 20 22 5 24
-29 5z"/>
<path d="M1930 3409 c0 -6 9 -23 21 -37 l20 -26 -5 27 c-2 15 -7 31 -11 37 -8
13 -25 13 -25 -1z"/>
<path d="M3134 2896 c-10 -8 -16 -18 -11 -22 4 -4 7 -2 7 4 0 7 6 12 14 12 8
0 18 5 21 10 9 15 -8 12 -31 -4z"/>
</g>
</svg>
